<svg xmlns="http://www.w3.org/2000/svg" xmlns:xlink="http://www.w3.org/1999/xlink" width="79.875" height="79.875" viewBox="0 0 79.875 79.875">
  <defs>
    <filter id="Icon_awesome-arrow-alt-circle-left" x="0" y="0" width="79.875" height="79.875" filterUnits="userSpaceOnUse">
      <feOffset dy="3" input="SourceAlpha"/>
      <feGaussianBlur stdDeviation="7.5" result="blur"/>
      <feFlood flood-color="#20242c" flood-opacity="0.251"/>
      <feComposite operator="in" in2="blur"/>
      <feComposite in="SourceGraphic"/>
    </filter>
  </defs>
  <g id="Group_442" data-name="Group 442" transform="translate(22.5 19.5)">
    <circle id="Ellipse_11" data-name="Ellipse 11" cx="12" cy="12" r="12" transform="translate(4.875 6.312)" fill="#bf7e2f"/>
    <g transform="matrix(1, 0, 0, 1, -22.5, -19.5)" filter="url(#Icon_awesome-arrow-alt-circle-left)">
      <path id="Icon_awesome-arrow-alt-circle-left-2" data-name="Icon awesome-arrow-alt-circle-left" d="M18,35.438A17.438,17.438,0,1,0,.563,18,17.434,17.434,0,0,0,18,35.438ZM9.844,14.906H18V9.921a.844.844,0,0,1,1.441-.6L27.478,17.4a.836.836,0,0,1,0,1.188L19.441,26.67a.844.844,0,0,1-1.441-.6V21.094H9.844A.846.846,0,0,1,9,20.25v-4.5A.846.846,0,0,1,9.844,14.906Z" transform="translate(21.94 18.94)" fill="#fff"/>
    </g>
  </g>
</svg>
