<svg xmlns="http://www.w3.org/2000/svg" width="870.506" height="446.817" viewBox="0 0 870.506 446.817">
  <g id="Group_307" data-name="Group 307" transform="translate(-46.973 -204.478)">
    <path id="Path_1882" data-name="Path 1882" d="M521.116,628.112c-6.568,3.044-7.048,5.606-2.564,13.775-1.6,5.445-5.606,8.008-11.051,8.008-10.572.16-20.983.16-31.553.16-1.283,0-2.4-.8-3.845-1.281,4.484-5.285,8.809-10.251,12.973-15.377,3.044-3.843,11.213-5.606,5.287-13.134,3.524-11.212-1.6-21.142-4.805-31.232-3.044-9.61-4.966-21.3-11.853-27.389C459.611,549.149,456.247,532.651,450,516.8c-4.164-10.572-8.969-20.983-13.935-31.073-.96-2.083-4.805-4-7.046-3.685a63.534,63.534,0,0,0-17.138,4.006c-10.092,4-20.182,6.086-30.433,1.12-4-1.921-4.965,1.283-6.407,3.524-12.172,18.9-23.7,38.441-36.679,56.7-8.329,11.693-15.856,23.385-20.661,36.84-5.767,16.337-11.052,32.674-10.731,50.293,0,1.6-.8,3.044-1.922,6.887-3.044-4.484-4.966-7.367-7.369-11.051-1.121,2.883-1.6,5.445-3.042,7.367-1.922,2.723-4,6.727-6.727,7.528-15.857,3.845-32.035,2.883-48.852-.48a26.277,26.277,0,0,1,3.2-3.684c7.689-6.888,15.536-13.3,22.9-20.5,2.723-2.723,4.164-6.887,6.086-10.251,4.484-7.688,9.13-15.216,13.293-23.063,2.723-5.126,3.845-11.532,7.528-15.857,7.528-8.65,2.723-19.22,5.606-28.031a170.291,170.291,0,0,1,16.337-35.557c10.251-16.5,19.861-33,24.186-52.054a8.142,8.142,0,0,0-.96-5.767c-3.364-6.566-6.568-13.455-10.893-19.38-4-5.446-8.648-11.373-14.415-14.416-9.289-4.965-19.7-8.489-29.951-11.212-17.939-4.8-34.917-10.891-50.454-21.3-4.965-3.364-11.212-4.484-16.977-6.407-6.888-2.243-13.775-4.165-20.662-6.088a11.871,11.871,0,0,0-6.247.321c-19.541,6.247-38.92,13.3-58.622,18.74-8.008,2.243-16.817,1.121-25.306,1.283-8.65.16-17.459-.321-26.108-.161-6.086.161-12.333.962-16.337-5.446-.48-.8-1.761-1.281-2.723-1.761-11.851-5.606-14.094-14.9-7.046-26.107a202.1,202.1,0,0,1,48.05-54.779,29.472,29.472,0,0,0,10.251-14.9c7.207-22.744,22.584-37.8,46.93-41.645,6.407-.96,12.813-.96,19.059-1.281,2.4-7.528,4.645-14.736,6.888-21.784h3.042c.962,6.407,2.723,12.813,2.564,19.22,0,6.247,1.6,10.092,8.168,11.052a6.23,6.23,0,0,1,3.364,1.763c3.524,4,7.528,8.008,13.455,6.407,7.527-2.082,15.7-3.524,21.782-7.849,12.174-8.488,13.134-18.74,4.966-31.393-1.922-2.883-3.845-5.765-6.407-9.61,11.371.962,16.176,8.97,20.981,16.017,9.45,14.417,3.044,27.069-6.727,39.081,16.819,2.564,31.874.641,46.289-6.887,15.857-8.329,32.836-15.056,47.41-25.306,15.377-10.893,32.035-18.1,49.493-24.186,4-1.442,8.327-1.442,12.652-1.922,1.281-.16,2.884.641,3.845.161,12.172-5.287,25.146-3.685,37.8-4.645,19.541-1.6,38.6,0,57.18,5.765,26.588,8.329,53.978,8.65,81.366,8.329,20.341-.321,40.683-.64,61.185-1.121,19.22-.319,38.6-1.12,57.02-7.688,11.052-4,21.622-.321,32.033,3.2.962.321,2.4.962,2.564,1.763,1.761,7.847,9.13,7.367,14.415,9.13,11.371,4,22.744,8.168,34.6,10.411,11.212,2.082,23.065,2.562,34.436,2.4,10.09-.161,16.337,2.241,18.26,12.333,1.761,9.289,1.121,19.059,1.442,28.509.16,2.883,0,5.926.16,8.809.641,15.377,1.281,30.593,2.082,45.97a85.368,85.368,0,0,0,2.564,16.817c3.843,12.973,8.488,25.786,12.333,38.6,2.883,9.13,4.965,18.419,7.688,27.549a112.774,112.774,0,0,0,4.8,12.172c4.164,8.97,9.289,17.62,12.493,26.909,3.364,9.61,5.606,20.021,2.082,30.272-.159.48,0,1.121-.159,1.281-10.411,6.566-7.367,17.459-6.727,26.427,1.121,14.1,4.325,28.031,7.528,41.8a23.353,23.353,0,0,0,8.008,12.174c9.13,6.407,12.493,16.337,16.5,25.467,3.522,8.168,5.445,16.977,7.367,25.627,1.442,7.207-.96,10.731-6.086,12.654-11.052-9.771-21.784-19.06-32.194-28.67-15.536-14.255-24.666-31.073-24.507-53.016,0-16.819-5.445-32.674-14.254-47.251-8.329-13.774-20.983-20.5-37.16-25.467,2.4,6.407,4.325,11.693,6.568,16.658,2.883,6.407,1.442,12.333-1.761,18.1-5.446,10.251-11.853,20.022-16.178,30.754-8.97,21.622-16.818,43.725-24.987,65.668-3.042,8.329-4.965,16.819-3.042,25.788.64,2.883.159,5.926.159,10.411-2.883-2.4-4.645-3.684-6.727-5.446-1.442,1.763-2.883,3.364-4.645,5.607-1.761-2.243-3.2-4.325-5.925-7.849-1.6,4-2.564,6.727-4.165,10.891-15.536,7.207-33,.962-50.293.161-.16-1.121-.321-1.922-.16-1.922,7.847-4.645,12.813-13.134,22.1-16.337,9.77-3.364,16.178-10.731,20.182-20.182.96-2.4,2.883-4.325,4-6.727,13.935-26.268,23.224-53.817,17.939-83.928-2.243-13.3-7.689-25.947-11.373-38.922-2.241-7.528-3.843-15.216-6.246-22.744-.962-3.363-.8-8.169-6.888-7.849-.8,0-2.241-4.644-2.883-7.208-1.442-6.566-2.883-7.688-9.289-5.926-.161.161-.161.321-.321.641-1.281,3.044-2.564,6.247-3.845,9.289-2.562-3.363-5.126-6.727-7.528-10.25-.8-1.283-.96-4.165-1.6-4.325-9.289-1.283-17.939-7.528-28.35-1.121-14.9,9.13-30.912,16.337-46.129,25.146-9.77,5.765-20.5,4.325-30.591,4.965-29.312,1.922-58.622,1.922-87.933,3.524-9.45.48-18.74,3.684-28.029,5.926-1.121.321-2.564,3.364-2.243,4.8,5.446,18.74,11.532,37.159,16.658,55.9,2.883,10.412,3.524,21.624,6.727,32.035,4.325,14.094,11.212,27.549,15.216,41.8a53.546,53.546,0,0,0,8.008,16.337c1.442,2.082.962,5.926.321,8.648-.321,1.283-2.883,2.884-4.484,2.884C523.839,632.117,522.717,629.874,521.116,628.112ZM853.947,434.948c-13.455-34.276-20.983-69.672-24.507-106.672-3.522,2.723-7.207,5.445-8.008,8.809a295.049,295.049,0,0,0-6.246,35.237c-.8,7.528-.161,15.216.319,22.9.321,4.484.8,9.13,2.723,13.134C825.277,422.776,838.251,430.143,853.947,434.948Z" transform="translate(0)" fill="#bf7e2f" stroke="#fff" stroke-miterlimit="10" stroke-width="1.054"/>
    <path id="Path_1883" data-name="Path 1883" d="M53.292,306.687c.16-.16.96.321,2.082,1.281,1.922,1.6,6.407,5.446,5.285,8.97-.64,1.761-2.722,3.363-4.484,3.042-2.562-.319-4.164-4.323-3.2-6.727.48-1.441,1.922-1.761,1.922-3.2C54.894,308.289,53.131,307.008,53.292,306.687Z" transform="translate(2.693 52.821)" fill="#bf7e2f" stroke="#fff" stroke-miterlimit="10" stroke-width="1.054"/>
    <path id="Path_1884" data-name="Path 1884" d="M97.988,270.781c-.16-.962,7.528-5.287,14.576-2.723a17.006,17.006,0,0,1,6.086,4.164c2.082,2.082,3.2,4.165,3.044,4.325s-2.4-3.2-4-2.723c-.8.321-.8,1.281-1.922,2.723-.321.321-2.4,3.044-5.606,3.2a6.978,6.978,0,0,1-5.606-2.883,4.46,4.46,0,0,1-.8-3.524c.319-.96,1.12-1.281.96-1.6-.16-.48-1.761-.16-4.484-.48C98.789,271.261,97.988,271.1,97.988,270.781Z" transform="translate(26.228 32.349)" fill="none" stroke="#fcfcfc" stroke-miterlimit="10" stroke-width="1.054"/>
    <path id="Path_1885" data-name="Path 1885" d="M62.888,331.314c6.888-.962,14.255-6.247,22.744-4.966,7.048.962,13.775,1.763,15.056-5.126" transform="translate(7.992 60.389)" fill="none" stroke="#fcfcfc" stroke-miterlimit="10" stroke-width="1.054"/>
    <path id="Path_1886" data-name="Path 1886" d="M155.089,261.814s7.048-1.6,17.138,1.442c10.09,3.2,17.3,5.927,24.186,10.411s21.943,12.012,21.943,12.012-13.935,2.4-18.26,2.564-15.216,1.281-16.5.96c-1.442-.321-2.243-9.61-2.243-9.61l-3.363,8.489a18.761,18.761,0,0,1-8.01-1.441c-4-1.6-8.648-5.767-10.25-7.528s-6.727-8.809-6.727-8.809" transform="translate(54.818 29.302)" fill="none" stroke="#fcfcfc" stroke-miterlimit="10" stroke-width="1.054"/>
    <path id="Path_1887" data-name="Path 1887" d="M201.307,251.632s-7.847,7.048-22.9,10.731c-14.9,3.685-24.505,3.845-30.112,2.884s-11.051-6.727-11.531-10.572c-.482-3.684-.321-6.247.64-7.849a20.26,20.26,0,0,1,6.568-6.566c4-2.723,6.086-3.044,6.086-3.044" transform="translate(46.239 16.74)" fill="none" stroke="#fcfcfc" stroke-miterlimit="10" stroke-width="1.054"/>
    <path id="Path_1888" data-name="Path 1888" d="M179.674,502.079a59.326,59.326,0,0,1,16.977-17.939c.8-.48,1.6-.962,2.243-1.442" transform="translate(68.674 144.293)" fill="none" stroke="#fcfcfc" stroke-miterlimit="10" stroke-width="1.054"/>
    <path id="Path_1889" data-name="Path 1889" d="M477.434,502.885c3.843-6.247,10.57-11.373,18.1-16.5" transform="translate(223.392 146.21)" fill="none" stroke="#fcfcfc" stroke-miterlimit="10" stroke-width="1.054"/>
  </g>
</svg>
