<svg xmlns="http://www.w3.org/2000/svg" width="7.933" height="9.066" viewBox="0 0 7.933 9.066">
  <path id="Icon_awesome-calendar-alt" data-name="Icon awesome-calendar-alt" d="M0,8.216a.85.85,0,0,0,.85.85H7.083a.85.85,0,0,0,.85-.85V3.4H0ZM5.667,4.746a.213.213,0,0,1,.212-.212h.708a.213.213,0,0,1,.212.212v.708a.213.213,0,0,1-.212.212H5.879a.213.213,0,0,1-.212-.212Zm0,2.267A.213.213,0,0,1,5.879,6.8h.708a.213.213,0,0,1,.212.212v.708a.213.213,0,0,1-.212.212H5.879a.213.213,0,0,1-.212-.212ZM3.4,4.746a.213.213,0,0,1,.212-.212h.708a.213.213,0,0,1,.212.212v.708a.213.213,0,0,1-.212.212H3.612A.213.213,0,0,1,3.4,5.454Zm0,2.267A.213.213,0,0,1,3.612,6.8h.708a.213.213,0,0,1,.212.212v.708a.213.213,0,0,1-.212.212H3.612A.213.213,0,0,1,3.4,7.721ZM1.133,4.746a.213.213,0,0,1,.212-.212h.708a.213.213,0,0,1,.212.212v.708a.213.213,0,0,1-.212.212H1.346a.213.213,0,0,1-.212-.212Zm0,2.267A.213.213,0,0,1,1.346,6.8h.708a.213.213,0,0,1,.212.212v.708a.213.213,0,0,1-.212.212H1.346a.213.213,0,0,1-.212-.212Zm5.95-5.879h-.85V.283A.284.284,0,0,0,5.95,0H5.383A.284.284,0,0,0,5.1.283v.85H2.833V.283A.284.284,0,0,0,2.55,0H1.983A.284.284,0,0,0,1.7.283v.85H.85a.85.85,0,0,0-.85.85v.85H7.933v-.85A.85.85,0,0,0,7.083,1.133Z" fill="#cecece"/>
</svg>
