<svg xmlns="http://www.w3.org/2000/svg" width="15.454" height="15.456" viewBox="0 0 15.454 15.456">
  <path id="Icon_awesome-check-double" data-name="Icon awesome-check-double" d="M15.24,5.275l-1.2-1.2a.721.721,0,0,0-1.023,0L5.793,11.308,2.431,7.943a.721.721,0,0,0-1.023,0l-1.2,1.2a.725.725,0,0,0,0,1.026L5.28,15.241a.721.721,0,0,0,1.023,0L15.237,6.3A.728.728,0,0,0,15.24,5.275Zm-9.788,3.2a.479.479,0,0,0,.682,0L12.412,2.19a.485.485,0,0,0,0-.682L11.048.141a.479.479,0,0,0-.682,0L5.793,4.713,4.121,3.038a.479.479,0,0,0-.682,0L2.072,4.406a.485.485,0,0,0,0,.682Z" transform="translate(0.004 0.002)" fill="#4a2921"/>
</svg>
