<svg xmlns="http://www.w3.org/2000/svg" width="293.333" height="216.906" viewBox="0 0 293.333 216.906">
  <g id="Group_533" data-name="Group 533" transform="translate(-504.123 -376.494)">
    <path id="Path_4147" data-name="Path 4147" d="M596.414,505.84q9.2,5.662,18.4,11.343c-8.111,7.834-19.272,14.062-22.309,22.674-.132,5.033-.144,14.135,2.6,18.341,1.242,1.91,2.716,2.034,3.084,2.853a3.257,3.257,0,0,1,2.245,3.158c-.014.251-.181.388-.34.3a2.6,2.6,0,0,0-.944-.322c-.615,1.763.509,2.457,1.2,2.935,3.012,3.614,4.205,7.676,2.063,12.578-1.242,2.566-3.441,3.476-4.219,1.6a23.668,23.668,0,0,0-4.394-6.634c-5.3-3.814-8.693-6.657-9.068-13.665a143.174,143.174,0,0,0-2.953-23.461,21.537,21.537,0,0,1-.476-8.157c.877-5.649,11.529-18.546,15.11-23.536" fill="#8eafa0" fill-rule="evenodd"/>
    <path id="Path_4148" data-name="Path 4148" d="M599.495,582.542h-.05a1.658,1.658,0,0,1-1.481-1.152,23.163,23.163,0,0,0-4.349-6.563c-5.416-3.89-8.755-6.781-9.132-13.818a140.916,140.916,0,0,0-2.947-23.421,21.766,21.766,0,0,1-.479-8.25c.712-4.585,7.69-13.767,12.308-19.843,1.145-1.507,2.135-2.809,2.846-3.8l.136-.189.2.122q9.2,5.662,18.4,11.343l.275.169-.232.223c-2.544,2.457-5.407,4.773-8.176,7.013-6.162,4.983-11.982,9.692-14.057,15.527-.091,3.434-.351,13.7,2.558,18.159a6.029,6.029,0,0,0,2.06,1.931,2.81,2.81,0,0,1,.984.842,3.517,3.517,0,0,1,2.325,3.372.6.6,0,0,1-.283.524.426.426,0,0,1-.431-.007,2.39,2.39,0,0,0-.648-.255,1.961,1.961,0,0,0,1.1,2.395l.123.1c3.4,4.083,4.091,8.282,2.1,12.838-.813,1.677-2.041,2.745-3.149,2.745m-3.013-76.367c-.7.97-1.643,2.206-2.719,3.622-4.587,6.035-11.519,15.156-12.212,19.617a21.283,21.283,0,0,0,.473,8.063,141.536,141.536,0,0,1,2.959,23.5c.364,6.815,3.629,9.637,8.964,13.476a23.636,23.636,0,0,1,4.48,6.742,1.193,1.193,0,0,0,1.033.843h.034c.89,0,1.992-1,2.7-2.454,1.9-4.347,1.243-8.368-2.009-12.282l-.044-.031a2.456,2.456,0,0,1-1.226-3.174l.068-.191.2.025a2.864,2.864,0,0,1,.989.329.228.228,0,0,0,.012-.069,3,3,0,0,0-2.045-2.9l-.125-.027-.053-.116a2.135,2.135,0,0,0-.853-.738,6.561,6.561,0,0,1-2.212-2.08c-3.005-4.61-2.729-15.053-2.639-18.485l.015-.077c2.111-5.986,8-10.747,14.227-15.787,2.677-2.165,5.442-4.4,7.911-6.761q-8.953-5.527-17.925-11.05m3.73,58.112h0Z" fill="#fdfefe"/>
    <path id="Path_4149" data-name="Path 4149" d="M730.263,560.223c1.587-2.606,3.178-5.111,4.672-7.424,1.418-2.191,3.449-4.831,4.444-7.152a11.931,11.931,0,0,0,.995-5.61c-.281-4.049-1.07-7.048-1.033-11.635.093-10.661,2.443-19.542,7.107-26.589q-21.5-9.946-42.987-19.877c2.472,21.22,13.913,35.649,17.607,55.371a47.079,47.079,0,0,1-.718,15.54c-1.989,9.706-7.777,21.793-13.6,30.409-2.257,1.478-5.548,3.455-7.689,6.212-.965,1.244-.092,2.073,2.019,2.775a16.468,16.468,0,0,0,4.693.906,8.965,8.965,0,0,0,5.942-1.67,5.383,5.383,0,0,0,2.179-2.342,2.872,2.872,0,0,1,2.606-2.59,3.193,3.193,0,0,1,.138,1.085c-.012.2.186.291.407.191a3.545,3.545,0,0,0,1.823-3.718c.574-.739.137-2.2,1.17-4.395a193.274,193.274,0,0,1,10.228-19.487" fill="#8eafa0" fill-rule="evenodd"/>
    <path id="Path_4150" data-name="Path 4150" d="M706.022,593.4h-.255a16.64,16.64,0,0,1-4.767-.918c-1.523-.507-2.327-1.056-2.532-1.729a1.574,1.574,0,0,1,.393-1.437,27.718,27.718,0,0,1,7.048-5.813l.66-.427c6.4-9.472,11.707-21.351,13.536-30.278a47,47,0,0,0,.715-15.459c-1.683-8.982-5.056-17.044-8.318-24.84-3.905-9.335-7.944-18.988-9.289-30.533l-.052-.443.4.187q21.5,9.938,42.987,19.877l.264.122-.161.243c-4.6,6.945-6.972,15.845-7.065,26.453a49.659,49.659,0,0,0,.558,7.248c.179,1.379.366,2.8.474,4.368a12.221,12.221,0,0,1-1.014,5.726,33.965,33.965,0,0,1-3.206,5.32c-.443.645-.873,1.274-1.258,1.869-1.772,2.741-3.3,5.168-4.668,7.418a191.052,191.052,0,0,0-10.215,19.464,8.677,8.677,0,0,0-.766,2.912,3.385,3.385,0,0,1-.364,1.43,3.794,3.794,0,0,1-1.973,3.884.58.58,0,0,1-.58-.016.451.451,0,0,1-.194-.409,2.789,2.789,0,0,0-.073-.791,2.653,2.653,0,0,0-2.173,2.34c-.251,1.029-1.682,2.1-2.285,2.518a9.075,9.075,0,0,1-5.832,1.715m-2.259-111.049c1.388,11.279,5.358,20.772,9.2,29.955,3.272,7.819,6.654,15.9,8.35,24.955a47.512,47.512,0,0,1-.719,15.637c-1.845,9-7.2,20.97-13.641,30.5l-.07.069-.7.457a27.343,27.343,0,0,0-6.925,5.7,1.1,1.1,0,0,0-.308.985c.148.49.892.961,2.21,1.4a16.115,16.115,0,0,0,4.616.894,8.657,8.657,0,0,0,5.8-1.625,5.076,5.076,0,0,0,2.078-2.2,3.089,3.089,0,0,1,2.821-2.779l.209-.024.06.2a3.463,3.463,0,0,1,.148,1.14c.011-.006.029-.011.053-.022a3.3,3.3,0,0,0,1.682-3.431l-.028-.118.074-.094a2.691,2.691,0,0,0,.333-1.283,9.236,9.236,0,0,1,.809-3.065,191.491,191.491,0,0,1,10.24-19.511c1.373-2.255,2.9-4.684,4.676-7.429.388-.6.82-1.231,1.266-1.88a33.569,33.569,0,0,0,3.159-5.236,11.735,11.735,0,0,0,.975-5.493c-.108-1.549-.293-2.967-.472-4.338a49.976,49.976,0,0,1-.562-7.317c.092-10.584,2.443-19.491,6.988-26.482q-21.157-9.791-42.316-19.567" fill="#fdfefe"/>
    <path id="Path_4151" data-name="Path 4151" d="M795.915,522.74l-.142-.074-.648-1.9a4.955,4.955,0,0,0-.51-1.057l-.855-1.336.995,2.535-.169.312-.242-.053-.088-.042-.095-.12-1.332-3.372a5.041,5.041,0,0,0-.318-.658l-.409-.7,0,.056-.038.019.816,1.879-.113.313-.244-.011-.114-.032-.1-.122-.769-1.777a4.681,4.681,0,0,0-.319-.612l-1.819-2.968-.038.01-.235-.161-.931-1.643,1.616,4.623-1.441-2.39-1.676-4.782-.093.163-.257-.133.389,1.182-.172.307-.241-.065-.091-.046-.082-.123-.4-1.212-.107.06-.387-.333-.587-2.181-.1.144-.242-.077-.1-.062-.065-.142-.365-2.386-.005.006-.226-.066-.1-.062-.073-.151-.344-2.576.04-.073-.077-.2.048.2-.185.292-.248-.056-.091-.054-.088-.139-.98-3.936-.2-.051-.091-.056-.081-.137-2.15-9.5-.067-.017-.091-.045-.082-.12-2.832-8.039L775.8,479l-.238-.293-.14-1.005-2.388-6.491.167-.329c-.831-2.26-1.527-4.013-2.236-5.633a4.965,4.965,0,0,0-.352-.665l-1.729-2.759.08-.347-2.031-2.974-.095.076-.157-.185a10.427,10.427,0,0,0-1.12-1.136,5.46,5.46,0,0,1-.417-.4l-.334-.364.094.169-.739-.386c-.134-.069-.27-.134-.407-.192l-.075-.033a5.147,5.147,0,0,0-.89-.274A5.432,5.432,0,0,1,758.571,452c-.288-1.046-.627-2.26-1-3.443a36.57,36.57,0,0,0-2.554-6.308c-.208-.377-.445-.765-.7-1.155l-.339-.514.6.132a15.641,15.641,0,0,1,2.441.751,4.816,4.816,0,0,0,.973.286l.385.069a5.374,5.374,0,0,1,1.255.383l1.546.685c.107.049.214.1.318.154l.921.485a5.394,5.394,0,0,1,1.409,1.066l1.653,1.746a6.976,6.976,0,0,1,1.189,1.7l.859,1.73a4.963,4.963,0,0,0,.532.833c.514.656,1.039,1.378,1.651,2.269.065.094.134.188.206.278l1.812,2.245a5.312,5.312,0,0,1,.619.957l1.34,2.654-.261.155q.615,1.247,1.21,2.6l.37-.148.267.529,1.1,3.854c.03.1.065.209.1.313,1.832,4.947,3.3,10.179,4.714,15.238.6,2.152,1.2,4.3,1.83,6.414.847,2.868,1.8,5.7,2.542,7.845a5.016,5.016,0,0,0,.389.859l1.623,2.827a4.971,4.971,0,0,0,.846,1.085l.653.63a4.946,4.946,0,0,0,.87.669l.993.6a4.871,4.871,0,0,0,.813.393l1.038.389.286.561-.552.308-1.018-.382,2.126,1.989.03.487-.268.059,0,.071,3.433,2.9.031.463-.456.1-1.032-.656-.018.316-.236.055.176.236-.1.476-.48-.089-.456-.608,1.268,2.192-.093.337-.253,0-.1-.026-.11-.106-.109-.188,0,.061-.006.009.165.372-.107.32h-.021l.856,1.918-.137.481-.151-.035,1.738,5.659-.176.3-.246-.06-.09-.049-.088-.129-.395-1.288a5,5,0,0,0,.189.729l.764,2.227-.174.3-.246-.049-.089-.046-.1-.127-.35-1.012-.178.2.322.945-.173.308Zm-5.877-13.494.049.024-.208-.432-.025-.008.142.4Zm-7.8-11.977.024-.047.057.027-.169-.357Z" fill="#8eafa0"/>
    <path id="Path_4152" data-name="Path 4152" d="M754.52,440.958a15.413,15.413,0,0,1,2.4.739,5.189,5.189,0,0,0,1.022.3l.385.068a5.162,5.162,0,0,1,1.2.366l1.544.685c.1.046.205.1.3.148l.922.484a5.153,5.153,0,0,1,1.344,1.017l1.653,1.746a6.741,6.741,0,0,1,1.147,1.64l.859,1.731a5.1,5.1,0,0,0,.559.876c.575.734,1.115,1.49,1.641,2.257.07.1.142.2.218.293l1.812,2.245a5.034,5.034,0,0,1,.589.912l1.341,2.654-1.433-2.09a67.42,67.42,0,0,1,4.035,8.929l-1.283-4.229.267.53,1.08,3.81c.032.112.069.222.109.33,2.6,7.016,4.421,14.479,6.539,21.639.78,2.639,1.649,5.251,2.544,7.854a5.235,5.235,0,0,0,.41.9l1.623,2.826a5.172,5.172,0,0,0,.888,1.141l.654.631a5.2,5.2,0,0,0,.914.7l.993.6a5.133,5.133,0,0,0,.854.414l.948.355.133.26-.242.134-2.086-.782,2.972,2.777.01.175-.172.039-.772-.462.686.572,0,.071-.078.006-1.068-.9.367.455,4.223,3.574.009.144-.144.033-2.173-1.379.84,1.047,0,.065-.059,0-1.018-1.263-.673-.426,1.661,2.232-.029.129-.145-.026-1.995-2.657-.284-.18.015.035.338.54.016.051-.011.045,2.322,4.01-.016.057-.057-.014-2.085-3.593,0,.026,1.509,3.42,0,.071-.038.055.183.412-.02.061-.057-.015-.2-.439-.026-.016-.021-.03-.626-1.412.243.793a5.2,5.2,0,0,0,.22.584l1.213,2.718-.047.166-.167-.04-.272-.356,1.93,6.287-.032.054-.058-.03-1.724-5.63a5.142,5.142,0,0,0-.831-1.617l-.162-.212.026.1.887,2.047.005.019.535,1.87a5.179,5.179,0,0,1,.141.651l.221,1.464a5.136,5.136,0,0,0,.221.906l.726,2.118-.032.059-.064-.033-.755-2.187.035,1.032-.1.109-.131-.08-.112-.289-.054-.015-.042-.04-.269-.421.711,2.083-.028.049-.052-.028-.617-1.806a5.112,5.112,0,0,0-.536-1.112l-1.565-2.448.378.793-.053.172-.165-.044-.189-.327,1.249,3.171-.028.05-.059-.027-1.331-3.373a5.177,5.177,0,0,0-.335-.691l-2.671-4.608,1.814,3.779-.01.148-.122.062.869,2-.019.054-.048-.015-.769-1.776a5.153,5.153,0,0,0-.335-.643l-1.915-3.124-.108.026-.094-.065-2.2-3.886-.019-.016-.02-.019,1.707,4.883-.2-.325-1.723-4.93-.311-.51.1.345-.153.272-.292-.151-.375-1.073-.022-.018-.02-.022.131.973v0l.537,1.643-.026.047-.051-.026-.494-1.5-.219.125-.2-.168-1.465-5.439.488,3.2-.036.053-.049-.03-.608-3.984-.111-.409-.287-.763.031.221.028.013.014.03.271,2.223-.045.051-.058-.037-.333-2.492.029-.052.052.012-1.172-3.106.144-.27.308.149.02.052.045-.043.055-.032-.082-.219-.04-.031-.032-.046-1.268-2.716,1.426,6.132-.04.064-.063-.036-1.332-5.354.027-.042.043.023.112.438-.393-1.693-.187-.4.482,2.826-.04.062-.057-.036-2.292-10.122a5.341,5.341,0,0,0-.178-.607q-.23-.633-.456-1.267l-.006.013-.147-.022.753,2.278-.024.044-.049-.025-2.9-8.23-.15.019-.106-.13-.13-.936-2.363-6.44.075-.151.162.051.054.112c-.75-2.056-1.534-4.1-2.4-6.091a5.28,5.28,0,0,0-.369-.7l-1.674-2.671.031-.134.151.028.658.945c-.048-.094-.092-.188-.139-.281l-2.863-4.195-.116.09a10.848,10.848,0,0,0-1.147-1.163,5.112,5.112,0,0,1-.4-.382l-1.271-1.384.162.384-.014.074-.069.035.142.258c-.139-.074-.28-.14-.423-.2l-.032-.051-.01.031a5.491,5.491,0,0,0-.97-.3,5.159,5.159,0,0,1-4.036-3.594c-.319-1.156-.643-2.31-1.007-3.453a36.2,36.2,0,0,0-2.574-6.351c-.21-.383-.452-.778-.712-1.173m8.623,13.423-.18-.282-.676-.741.856,1.023m.5,1.132-.378-.592-.019-.062.017-.052-.937-1.117,1.317,1.823m.173-.327-.148-.313-.119-.129.238.409.029.033m17.214,39.556-.215-1.279-.026-.055-.02-.084.009-.077-.439-2.593.037-.057.055.032.208.889.171-.053.093.065q-.809-2.244-1.616-4.489l1.743,7.7m-.173-1.608.024-.017.023-.013-.2-.869.153.9m.218-.032-.183-.5.113.485.036.005.034.014m5.184,5.55.057-.011.157.11.185.3.068-.012.067.012-1.293-2.611c.255.739.495,1.481.759,2.216m4.091,5.389-.6-.949-.326-.383-.131-.049.857,1.264.2.117m1.933,1.152-2.348-2.224.332.519,1.173,1.2.843.5m-3.255-.428.076-.02.062.053.4.912.06.1v-.162l.116-.093-1.212-1.767.086.262.408.712m1.99-.327-.41-.414.175.275.235.139m.277,1.169-.1-.218-.285-.451-.171-.143.552.812m.72-.084-.268-.333-.444-.266.712.6m.191,1.018.044-.021.045.01-.132-.177.028-.122.138.026.735.963.616.38-.847-1.054-1.29-1.08.52.846.006,0,.005.006.132.22m-.612-.252-.259-.592-.016.1-.066.073.341.421m.836,1.028-.49-.758.157.35.333.408m.049-.4.038-.016.046.012.023.014-.263-.356.156.346m2.754,1.637-2.044-1.71.726.9,1.318.81m-5.022-.254-.474-1.11-.078-.062.552,1.172M793,509.48l-.736-1.668-.388-.427-.013,0L793,509.48m-2.562-1.208.006-.01-.335-.772-.038-.031.367.813m.051-.485.12-.006.108.087.167.26-.356-.654-.043.08-.077.049.081.184m1.741,1.983-.678-1.463-.392-.505,1.07,1.968m-2.22.018-.108-.274.024-.044.05.024.207.522.152.2.01-.032.019-.027-.073-.155.039-.114.106.03.651,1.291.587.773L790.09,508.7l-.02-.1.034-.088-.066-.146-.143.214-.232-.087-.214-.495a1.329,1.329,0,0,1-.127.072l.528,1.507.162.213m-1.427.748-.217-.641-1.067-1.8.166.455.011.058-.005.054,1.112,1.875m5.272.307-.339-1.112-.574-1.324-.094.006-.092-.059-.022-.023,1.121,2.512m.012,1.831.018-.024.021-.02-.594-2.22-.041-.012-.033-.036-.661-1.227-.159.116-.2-.085-.061-.076,1.71,3.584m-3.337,1.174-1.849-3.92,0,0,.676,2.007,1.175,1.911m4.1-.461-.209-.683-1.027-2.33-.015.012.6,2.219.038.007.032.026.585.749m-.774.43-.289-.843-.051-.029-.045-.049-.993-1.547,1.378,2.468m-2.5.181.061-.035.071.005-1.013-2.08-.007-.039-.045-.067-.044.176-.166.073L791.36,514m4.256,4.6-.325-1.657-.472-1.613-.253-.542.014.056-.027.044-.045-.026-.125-.467-.665-1.426-.024.007-.023,0,.46,1.322.792,1.419-.018.206-.185.069.9,2.6m-.061.152-1.009-2.928-.93-1.485-.13.021-.111-.094-.174-.342,2.354,4.828m-1.8-1.316-1.737-3.143-.039.028-.044.019.5,1.048,1.321,2.048m1.062,1.647-.429-1.255-1.226-2.274-.024,0,.958,2.015-.022.137-.124.03.867,1.344m.983,1.388-.1-1.237-.081.03-.075-.053-1.11-2.168.549,1.382.134.252.014.051-.008.047.679,1.7m-.652-.873-.493-1.273-.032-.059.377,1.1.148.23m-41.725-79.394.679,1.027c.261.4.494.78.691,1.138a36.177,36.177,0,0,1,2.536,6.263c.378,1.182.715,2.392,1,3.434a5.677,5.677,0,0,0,4.416,3.951,4.846,4.846,0,0,1,.825.252l.094.04c.131.056.261.118.389.184l.818.427.094.1a5.409,5.409,0,0,0,.436.421,10.137,10.137,0,0,1,1.094,1.11l.312.367.074-.059,1.818,2.664,0,.009-.03.134-.044.2.109.173,1.673,2.672a4.757,4.757,0,0,1,.335.632c.7,1.589,1.379,3.308,2.193,5.516l-.07.137-.1.194.074.2,2.345,6.39.123.883.019.139.088.107.107.131.175.217.025,0,2.763,7.848.067.188.176.091.019.009,2.12,9.365.048.209.183.109.058.035.124.075.936,3.758.052.207.184.107.064.036.372.213.269,2.017.031.227.191.125.058.038.154.1.332,2.173.034.228.2.121.049.03.343.214.452,1.678.04.148.116.1.2.168.259.223.306.932.064.194.18.093.051.027.428.223.238-.421.027-.047.019-.035,1.2,3.423.017.048.026.044.039.065.156.259,2.536,4.258-1.635-4.679-.107-.307.108.074,1.753,2.86a4.914,4.914,0,0,1,.3.58l.769,1.777.092.213.222.067.048.015.458.138.076-.216.951,2.41.073.183.179.085.059.028.431.2.224-.42.027-.052.038-.07.545,1.6.065.191.179.093.052.027.427.22.237-.417.028-.048.009-.017.046.024.064.032.427.215.235-.417.032-.059.109-.2-.072-.211-.3-.866.026.013.244-.417.032-.055.109-.189-.063-.21-1.6-5.21.112-.4.047-.165.049-.174-.074-.165-.767-1.72.034-.1.02-.062.008-.023.359.086.129-.466.016-.056.055-.2-.1-.182-.6-1.043.3.056.1-.471.029-.13.03-.135.038,0,.013-.2.589.373.175.111.2-.045.145-.032.417-.093-.027-.426-.009-.144-.012-.213L796.9,509l-3.031-2.564.044-.01-.026-.426-.01-.176-.013-.2-.145-.136-1.166-1.09.183-.1.242-.135.421-.235-.22-.429-.134-.26-.088-.173-.181-.067-.947-.355a4.685,4.685,0,0,1-.771-.373l-.993-.6a4.677,4.677,0,0,1-.826-.635l-.654-.631a4.661,4.661,0,0,1-.8-1.03l-1.623-2.826a4.812,4.812,0,0,1-.37-.817c-.737-2.142-1.691-4.968-2.538-7.833-.626-2.114-1.236-4.3-1.828-6.407-1.419-5.065-2.886-10.3-4.722-15.262-.036-.1-.067-.194-.1-.293l-1.08-3.811-.013-.046-.023-.043-.266-.529-.37.148q-.6-1.357-1.211-2.6l.261-.156-1.34-2.654a5.737,5.737,0,0,0-.646-1l-1.812-2.245c-.069-.085-.134-.172-.2-.262-.616-.9-1.143-1.622-1.66-2.282a4.521,4.521,0,0,1-.5-.79l-.859-1.729a7.23,7.23,0,0,0-1.232-1.763L764,444.421a5.624,5.624,0,0,0-1.474-1.116l-.92-.484c-.11-.057-.221-.111-.334-.162l-1.545-.685a5.649,5.649,0,0,0-1.313-.4l-.386-.067a4.657,4.657,0,0,1-.922-.273,16.032,16.032,0,0,0-2.482-.763Z" fill="#fdfefe"/>
    <path id="Path_4153" data-name="Path 4153" d="M794.848,513.91a.248.248,0,0,1-.2-.1l-.065-.082-.107-.288a.25.25,0,0,1,.151-.308.251.251,0,0,1,.317.132l.129.29a.251.251,0,0,1-.229.352" fill="#702713"/>
    <path id="Path_4154" data-name="Path 4154" d="M794.719,513.37l.129.29-.065-.082-.064-.208m0-.5a.509.509,0,0,0-.175.031.5.5,0,0,0-.3.615l.064.208a.488.488,0,0,0,.085.163l.064.082a.5.5,0,0,0,.851-.511l-.129-.29a.5.5,0,0,0-.457-.3" fill="#fdfefe"/>
    <path id="Path_4155" data-name="Path 4155" d="M760.708,451.927a.246.246,0,0,1-.2-.093l-.262-.329a.25.25,0,0,1,.2-.406.259.259,0,0,1,.126.034l.31.316a.252.252,0,0,1,.065.161.2.2,0,0,1-.014.178.252.252,0,0,1-.2.138h-.026" fill="#702713"/>
    <path id="Path_4156" data-name="Path 4156" d="M760.445,451.349l.018.013.234.257v.029l.011.028v0l-.263-.329m0-.5a.5.5,0,0,0-.392.812l.263.329a.5.5,0,0,0,.391.188l.047,0a.5.5,0,0,0,.425-.666.521.521,0,0,0-.114-.229l-.235-.257a.471.471,0,0,0-.07-.063c-.016-.012-.05-.036-.068-.047a.5.5,0,0,0-.247-.065" fill="#fdfefe"/>
    <path id="Path_4159" data-name="Path 4159" d="M773.22,528.446c-1.855-4.327-3.769-7.414-5.531-12.373-4.048-11.383-3.174-32.633-2.312-41.7l.087-.23a53.22,53.22,0,0,0,1.3-9.365c3.483-34.867-38.185-33.841-63.715-29.1-41.948-.82-57.41-6.541-78.672-9.9-13.114-2.074-21.847-1.6-29.749-.4a124.364,124.364,0,0,1-17.245-10.918,122.159,122.159,0,0,0-11.157-13.795c-1.529-3.95-8.816-13.544-17.786-7.068-7.3,1.238-12.251,4.627-15.67,9.418-7.84,2.892-13.468,8.023-20.643,8.818-8.459-.605-9.528,12.517-5.485,14.291.308,6.121,10.2,4.6,16.345,9.023,8.661,6.309,15.675,9.19,21.6,10.1a49.337,49.337,0,0,1,7.26,11.726,58.243,58.243,0,0,1,3.492,5.347c.641,1.087,1.227,2.187,1.764,3.332.159.338.812,1.443,1.142,2.049.167.214.352.411.509.634.513.721.96,1.418,1.366,2.111.166.22.346.421.505.651.4.574.79,1.174,1.17,1.793l.038.053q.3.4.607.805c-.136.272-.269.547-.4.819a57.069,57.069,0,0,1,4.852,5.213c9.044,6.549,17.576,15.235,23.887,22.336,9.215,10.363,15.054,13.877,21.768,14.945.692,8.732,2.574,18.01,3.427,25.235.787,6.679.638,11.067,2.762,17.9-1.138,9.309-1.575,15.911-4.829,24.133-1.723,1.628-4.25,3.84-5.557,6.543-.594,1.226.385,1.815,2.464,2.1a16.787,16.787,0,0,0,4.464.067,7.968,7.968,0,0,0,5.015-2.354,4.226,4.226,0,0,0,1.431-2.368,2.332,2.332,0,0,1,1.773-2.644,2.833,2.833,0,0,1,.371.924c.042.172.244.224.42.1a2.847,2.847,0,0,0,.8-3.488c.349-.726-.382-1.931.053-3.982,1.543-7.249,1.441-14.434,2.069-21.7,2.8-4.579,3.029-18.982,4.543-28.476a19,19,0,0,0,2.871-6.21,24.177,24.177,0,0,0,.446-5.649q1.05.013,2.152.043c12.176,2.123,51.815,8.982,71.823,4.474,6.82-1.53,24.3-1.6,33.378-1.381,7.763,7.639,14.392,16.014,16.815,26.59,2.471,10.78,1.842,24.651-.164,35.159-1.519,2.063-3.782,4.875-4.684,8.289-.411,1.551.726,2.265,2.963,2.592a14.523,14.523,0,0,0,4.7.02,6.681,6.681,0,0,0,4.848-3.03,4.891,4.891,0,0,0,1.1-2.977,2.64,2.64,0,0,1,1.393-3.339,4.37,4.37,0,0,1,.563,1.146.263.263,0,0,0,.457.119,3.886,3.886,0,0,0,.222-4.385c.243-.913-.738-2.408-.65-4.989a214,214,0,0,1,1.808-23.18c.454-3.139.941-6.174,1.411-8.969.449-2.669,1.3-5.94,1.313-8.65a15.784,15.784,0,0,0-1.288-6.268" fill="#8eafa0" fill-rule="evenodd"/>
    <path id="Path_4160" data-name="Path 4160" d="M613.536,593.4a22.565,22.565,0,0,1-2.753-.19c-1.544-.21-2.408-.581-2.722-1.168a1.373,1.373,0,0,1,.065-1.288,22.615,22.615,0,0,1,5.112-6.147l.458-.43c2.809-7.118,3.5-13.06,4.383-20.575.128-1.094.26-2.221.4-3.392a56.425,56.425,0,0,1-2.272-13.021c-.136-1.533-.277-3.118-.483-4.868-.333-2.819-.822-5.94-1.338-9.245-.81-5.181-1.648-10.538-2.074-15.8-7.176-1.2-13.087-5.284-21.722-14.994-8.21-9.237-16.456-16.948-23.847-22.3l-.047-.045a56.659,56.659,0,0,0-4.831-5.19l-.133-.127.418-.845-.566-.754c-.373-.609-.764-1.208-1.162-1.782-.092-.134-.192-.258-.293-.381-.069-.086-.139-.172-.206-.262-.437-.743-.88-1.427-1.37-2.117-.091-.129-.192-.248-.292-.367-.071-.085-.142-.17-.21-.258-.155-.277-.339-.6-.522-.919-.283-.5-.55-.966-.649-1.177-.522-1.11-1.095-2.194-1.753-3.311a57.656,57.656,0,0,0-3.478-5.325,49.014,49.014,0,0,0-7.188-11.642c-6.609-1.034-13.682-4.349-21.619-10.13-2.454-1.766-5.587-2.589-8.352-3.315-4.185-1.1-7.807-2.05-8.086-5.749-1.965-1.01-2.829-4.7-1.927-8.346,1.05-4.248,3.907-6.629,7.67-6.356,4.215-.471,7.963-2.511,11.931-4.671a65.128,65.128,0,0,1,8.535-4.106c3.72-5.179,8.866-8.27,15.729-9.446a9.866,9.866,0,0,1,8.852-1.812c4.723,1.4,8.166,6.229,9.248,8.98a121.381,121.381,0,0,1,11.124,13.755,124.312,124.312,0,0,0,17.107,10.834c6.891-1.035,15.821-1.787,29.745.415,5.455.864,10.462,1.868,15.762,2.931,14.86,2.982,31.7,6.361,62.876,6.971,12.292-2.29,42.532-6.217,56.691,6.8,5.787,5.319,8.233,12.914,7.268,22.572a53.783,53.783,0,0,1-1.31,9.4l-.085.231c-.977,10.3-1.59,30.618,2.3,41.559a71.119,71.119,0,0,0,3.37,7.737c.708,1.453,1.441,2.956,2.155,4.622a16.134,16.134,0,0,1,1.309,6.366,35.149,35.149,0,0,1-.873,6.341c-.161.813-.319,1.6-.444,2.35-.55,3.275-1.011,6.207-1.41,8.964a211.243,211.243,0,0,0-1.8,23.154,10.979,10.979,0,0,0,.443,3.314,15.522,15.522,0,0,1-.081,6.22.512.512,0,0,1-.879-.21,4.119,4.119,0,0,0-.42-.914c-1.531.721-1.151,2.588-1.056,2.968a5.3,5.3,0,0,1-1.133,3.18,6.933,6.933,0,0,1-5,3.133,14.764,14.764,0,0,1-4.782-.017c-1.6-.235-2.553-.653-2.991-1.317a1.9,1.9,0,0,1-.179-1.588,23.557,23.557,0,0,1,4.282-7.778l.408-.549c1.8-9.437,2.776-23.568.154-35-2.608-11.389-10.268-20.085-16.675-26.4-8.521-.2-26.289-.176-33.218,1.378-13.4,3.019-37.6,1.514-71.921-4.472-.613-.015-1.24-.027-1.858-.036a23.911,23.911,0,0,1-.454,5.452,19.308,19.308,0,0,1-2.876,6.247c-.5,3.146-.864,6.893-1.217,10.517-.709,7.283-1.444,14.812-3.32,17.945-.189,2.2-.314,4.436-.434,6.6a98.293,98.293,0,0,1-1.635,15.076,7.06,7.06,0,0,0-.025,2.623,2.9,2.9,0,0,1,0,1.295,3.092,3.092,0,0,1-.918,3.7.563.563,0,0,1-.529.089.464.464,0,0,1-.288-.327,2.56,2.56,0,0,0-.244-.683,2.085,2.085,0,0,0-1.409,2.311,4.532,4.532,0,0,1-1.5,2.576,8.25,8.25,0,0,1-5.154,2.426,11.662,11.662,0,0,1-1.782.123m-46.47-113.808c7.413,5.372,15.677,13.1,23.9,22.354,8.626,9.7,14.485,13.729,21.62,14.864l.194.031.016.2c.421,5.311,1.268,10.726,2.086,15.962.517,3.31,1.007,6.436,1.34,9.263.207,1.758.348,3.347.485,4.882a56.005,56.005,0,0,0,2.267,12.969l.016.051-.007.054c-.145,1.188-.279,2.332-.408,3.441-.885,7.572-1.585,13.551-4.435,20.753l-.061.09-.5.47a21.889,21.889,0,0,0-5.005,6,.9.9,0,0,0-.073.834c.226.422,1.015.727,2.347.908a16.272,16.272,0,0,0,4.391.068,7.717,7.717,0,0,0,4.877-2.284,3.97,3.97,0,0,0,1.358-2.185,2.573,2.573,0,0,1,1.954-2.89l.181-.053.1.161a3.133,3.133,0,0,1,.4,1.005,2.658,2.658,0,0,0,.753-3.216l-.062-.113.055-.116a2.225,2.225,0,0,0,0-1.132,7.62,7.62,0,0,1,.033-2.794,98.043,98.043,0,0,0,1.624-15c.122-2.181.248-4.437.44-6.668l.036-.109c1.839-3,2.571-10.518,3.279-17.784.356-3.653.724-7.429,1.23-10.6l.04-.1a18.9,18.9,0,0,0,2.835-6.127,24.318,24.318,0,0,0,.438-5.589l0-.256.255,0c.7.009,1.42.022,2.157.043,34.3,5.977,58.429,7.482,71.761,4.479,7-1.572,24.935-1.594,33.439-1.386l.1,0,.072.07c6.469,6.366,14.235,15.155,16.883,26.712,2.643,11.53,1.649,25.775-.164,35.261l-.043.1-.443.6a22.821,22.821,0,0,0-4.2,7.607,1.412,1.412,0,0,0,.114,1.185c.349.528,1.214.887,2.644,1.1a14.166,14.166,0,0,0,4.608.023,6.428,6.428,0,0,0,4.693-2.926,4.586,4.586,0,0,0,1.055-2.8,2.871,2.871,0,0,1,1.553-3.609l.183-.068.11.16a4.56,4.56,0,0,1,.6,1.212,3.539,3.539,0,0,0,.227-4.061l-.054-.091.027-.1a3.45,3.45,0,0,0-.2-1.477,11.58,11.58,0,0,1-.459-3.456,211.557,211.557,0,0,1,1.811-23.207c.4-2.762.86-5.7,1.411-8.975.126-.75.284-1.546.446-2.366a34.764,34.764,0,0,0,.864-6.244,15.637,15.637,0,0,0-1.268-6.168c-.71-1.655-1.439-3.152-2.145-4.6a71.558,71.558,0,0,1-3.392-7.789c-3.925-11.036-3.307-31.471-2.325-41.806l.016-.066.087-.229a53.448,53.448,0,0,0,1.288-9.287c.949-9.508-1.442-16.962-7.107-22.169-13.995-12.864-44.043-8.951-56.312-6.673-31.269-.606-48.135-3.99-63.016-6.977-5.295-1.062-10.3-2.065-15.741-2.926-13.91-2.2-22.806-1.438-29.673-.4l-.081.013-.073-.038a125.087,125.087,0,0,1-17.278-10.939l-.053-.055a121.136,121.136,0,0,0-11.135-13.768l-.053-.082c-.867-2.24-4.193-7.32-8.942-8.727a9.407,9.407,0,0,0-8.464,1.771l-.1.044c-6.782,1.15-11.855,4.2-15.507,9.316l-.045.063-.073.027a64.241,64.241,0,0,0-8.541,4.1c-4.012,2.184-7.8,4.247-12.161,4.73-5.213-.384-6.824,4.482-7.194,5.978-.853,3.45-.036,7.038,1.783,7.836l.141.061.008.155c.173,3.457,3.672,4.376,7.723,5.439,2.807.737,5.988,1.573,8.518,3.394,7.908,5.76,14.938,9.048,21.493,10.054l.09.014.06.068a49.061,49.061,0,0,1,7.3,11.786,56.615,56.615,0,0,1,3.482,5.326c.666,1.131,1.246,2.227,1.774,3.352.091.194.366.676.632,1.142.184.324.37.649.5.893.042.049.109.129.176.21.109.13.218.26.317.4.5.7.949,1.4,1.377,2.13l.181.223c.107.133.215.267.315.411.4.581.8,1.189,1.176,1.8a.323.323,0,0,1,.035.047l.69.914-.392.793a56.489,56.489,0,0,1,4.72,5.083" fill="#fdfefe"/>
    <path id="Path_4161" data-name="Path 4161" d="M560.354,394.79a6.069,6.069,0,0,0-.388-2.286c-2.042-6-9.643-6.562-12.958-11.2.792,4.153,4.654,6.927,6.883,9.789,1.381,1.788,1.225,2.628,2.007,4.451,1.21,2.8,4.289,1.514,4.456-.757" fill="#8eafa0" fill-rule="evenodd"/>
    <path id="Path_4162" data-name="Path 4162" d="M557.961,397.4a2.552,2.552,0,0,1-2.292-1.75,15.692,15.692,0,0,1-.575-1.606,7.453,7.453,0,0,0-1.4-2.791c-.62-.8-1.364-1.582-2.151-2.413-1.967-2.075-4.2-4.428-4.779-7.482l-.214-1.118.662.926c1.4,1.951,3.635,3.2,5.8,4.409,2.948,1.644,6,3.344,7.19,6.853a6.443,6.443,0,0,1,.4,2.384,2.789,2.789,0,0,1-2.25,2.554,2.292,2.292,0,0,1-.393.034m-10.42-15.046c.8,2.385,2.61,4.291,4.363,6.143.8.84,1.549,1.633,2.185,2.449a8,8,0,0,1,1.482,2.949,15.449,15.449,0,0,0,.557,1.558,1.98,1.98,0,0,0,2.141,1.421,2.313,2.313,0,0,0,1.835-2.1,5.94,5.94,0,0,0-.375-2.189c-1.132-3.324-4.094-4.977-6.96-6.576a20.733,20.733,0,0,1-5.228-3.657" fill="#fdfefe"/>
    <path id="Path_4163" data-name="Path 4163" d="M565.9,393.126c-2.745-5.639-12.394-10.19-15.228-15.393.66,5.91,5.669,10.169,8.176,14.442,1.286,2.187,1.167,3.322,1.835,5.544,1.682,5.582,8.17,1.49,5.217-4.593" fill="#8eafa0" fill-rule="evenodd"/>
    <path id="Path_4164" data-name="Path 4164" d="M563.424,400.61a2.491,2.491,0,0,1-.439-.039c-1.162-.209-2.065-1.2-2.542-2.78-.215-.715-.347-1.3-.473-1.875a10.671,10.671,0,0,0-1.338-3.615,40.23,40.23,0,0,0-2.822-3.981c-2.308-3-4.923-6.408-5.387-10.56l-.141-1.266.609,1.119c1.336,2.453,4.19,4.739,7.212,7.159,3.23,2.587,6.569,5.261,8.021,8.244,1.108,2.283,1.043,4.6-.173,6.209a3.254,3.254,0,0,1-2.527,1.385m-12.307-21.7c.75,3.464,2.953,6.33,5.089,9.11a40.591,40.591,0,0,1,2.857,4.033,11.2,11.2,0,0,1,1.394,3.759c.125.562.255,1.142.464,1.84.421,1.394,1.185,2.258,2.153,2.432a2.623,2.623,0,0,0,2.479-1.156c1.1-1.452,1.146-3.579.122-5.688-1.4-2.881-4.7-5.52-7.885-8.073-2.633-2.109-5.142-4.118-6.673-6.257" fill="#fdfefe"/>
    <path id="Path_4165" data-name="Path 4165" d="M559.739,408.277c.356-2-3.925-5.192-3.565-7.2,7.018.218,10.832-3.866,16.582-3.941,6.833-.087,6.9,6.639,1.347,9.464-3.979,2.023-9.591.336-14.364,1.677" fill="#8eafa0" fill-rule="evenodd"/>
    <path id="Path_4166" data-name="Path 4166" d="M559.423,408.626l.07-.393c.159-.889-.8-2.162-1.733-3.394-1.045-1.385-2.032-2.693-1.833-3.806l.038-.213.216.007c3.74.122,6.537-1,9.253-2.075a20.029,20.029,0,0,1,7.319-1.866c2.921-.027,4.959,1.18,5.471,3.256.6,2.43-1.05,5.177-4.008,6.681-2.244,1.141-4.926,1.128-7.756,1.119a24.59,24.59,0,0,0-6.653.576Zm-3.021-7.293c0,.881.894,2.061,1.757,3.2.925,1.225,1.8,2.39,1.849,3.409a26.328,26.328,0,0,1,6.454-.505c2.773.008,5.392.021,7.528-1.065,2.749-1.4,4.291-3.913,3.748-6.116-.452-1.834-2.3-2.913-4.979-2.875a19.634,19.634,0,0,0-7.14,1.831,22.278,22.278,0,0,1-9.217,2.116" fill="#fdfefe"/>
    <path id="Path_4167" data-name="Path 4167" d="M508.911,415.023c-.25-.344-.265-.153-.289.117a2.729,2.729,0,0,1-.356,1.318c-.977-.526-1.889,1.295-1.91,2.2a1.129,1.129,0,0,0,.463,1.07c1.452.718,2.911-3.341,2.092-4.709" fill="#8eafa0" fill-rule="evenodd"/>
    <path id="Path_4168" data-name="Path 4168" d="M507.166,420.067a1.025,1.025,0,0,1-.458-.11,1.362,1.362,0,0,1-.6-1.3,3.321,3.321,0,0,1,1.266-2.388,1.016,1.016,0,0,1,.778-.125,2.636,2.636,0,0,0,.223-1.016c.02-.239.041-.469.262-.531s.391.159.478.279l.012.018c.665,1.11.021,3.6-.944,4.643a1.415,1.415,0,0,1-1.015.529m.745-3.452a.575.575,0,0,0-.288.087,2.815,2.815,0,0,0-1.017,1.966.913.913,0,0,0,.327.843c.269.131.567.028.88-.312a4.928,4.928,0,0,0,1.027-3.672,2.773,2.773,0,0,1-.358,1.059l-.123.207-.211-.114a.488.488,0,0,0-.237-.064" fill="#fdfefe"/>
    <path id="Path_4169" data-name="Path 4169" d="M541.889,408.9a3.552,3.552,0,0,1,1.183,1.121,4.453,4.453,0,0,0-1.473-4.269,4.671,4.671,0,0,0-3.86-1.475,3.6,3.6,0,0,1,1.095,1.492,2.034,2.034,0,0,0,.382,2.447,2.726,2.726,0,0,0,2.673.684" fill="#8eafa0" fill-rule="evenodd"/>
    <path id="Path_4170" data-name="Path 4170" d="M543.2,410.653l-.332-.493a3.686,3.686,0,0,0-1-1,2.972,2.972,0,0,1-2.832-.775,2.3,2.3,0,0,1-.475-2.641,3.459,3.459,0,0,0-.981-1.278l-.386-.319.487-.117a4.858,4.858,0,0,1,4.087,1.534,4.7,4.7,0,0,1,1.549,4.5Zm-1.3-2.015.075.027a2.809,2.809,0,0,1,.931.747,4.273,4.273,0,0,0-1.475-3.475,5.05,5.05,0,0,0-3.124-1.466,3.511,3.511,0,0,1,.765,1.219l.036.108-.058.1a1.8,1.8,0,0,0,.346,2.147,2.473,2.473,0,0,0,2.427.616Z" fill="#fdfefe"/>
    <path id="Path_4171" data-name="Path 4171" d="M538.514,402.05c1.365,2.587,3.5,1.011,6.563,4.145-2.189-3.881-4.638-3.356-6.563-4.145" fill="#8eafa0" fill-rule="evenodd"/>
    <path id="Path_4172" data-name="Path 4172" d="M546.234,407.736l-1.335-1.367a7.7,7.7,0,0,0-3.827-2.216,3.807,3.807,0,0,1-2.779-1.986l-.321-.61.637.262a9.233,9.233,0,0,0,1.446.412,6.866,6.866,0,0,1,5.24,3.841Zm-7.125-5.222a3.661,3.661,0,0,0,2.1,1.159,8.756,8.756,0,0,1,2.616,1.144,6.251,6.251,0,0,0-3.885-2.1c-.286-.066-.564-.13-.835-.2" fill="#fdfefe"/>
    <path id="Path_4173" data-name="Path 4173" d="M506.647,426.12a4.942,4.942,0,0,0,.268,1.377,10.641,10.641,0,0,0,5.645.592,15.767,15.767,0,0,1-5.913-1.969" fill="#8eafa0" fill-rule="evenodd"/>
    <path id="Path_4174" data-name="Path 4174" d="M511.012,428.506a13.615,13.615,0,0,1-4.176-.771l-.117-.039-.041-.116a5.169,5.169,0,0,1-.281-1.445l-.026-.448.395.214a15.523,15.523,0,0,0,5.819,1.939l1.482.152-1.451.34a7.055,7.055,0,0,1-1.6.174m-3.9-1.208a13.619,13.619,0,0,0,3.523.7,17.434,17.434,0,0,1-3.692-1.438,4.473,4.473,0,0,0,.169.739" fill="#fdfefe"/>
    <path id="Path_4175" data-name="Path 4175" d="M716.5,586.547a3.214,3.214,0,0,1,.138,1.085c-.012.2.185.291.407.19a3.549,3.549,0,0,0,1.826-3.717c-.97,1.724-1.725,2.375-2.371,2.442" fill="#8eafa0" fill-rule="evenodd"/>
    <path id="Path_4176" data-name="Path 4176" d="M716.865,588.111a.492.492,0,0,1-.286-.085.451.451,0,0,1-.194-.409,2.924,2.924,0,0,0-.128-1l-.084-.288.3-.031c.618-.065,1.352-.844,2.18-2.316l.311-.556.15.62a3.784,3.784,0,0,1-1.953,4,.709.709,0,0,1-.294.068m-.06-1.375a3.349,3.349,0,0,1,.081.88c.011-.006.029-.011.053-.022a3.439,3.439,0,0,0,1.745-2.692,4,4,0,0,1-1.879,1.834" fill="#fff"/>
    <path id="Path_4177" data-name="Path 4177" d="M705.45,584.1a25.66,25.66,0,0,0-6.393,5.372c-.964,1.244-.091,2.073,2.02,2.774a16.433,16.433,0,0,0,4.692.907,8.968,8.968,0,0,0,5.943-1.67,5.379,5.379,0,0,0,2.178-2.342q-4.224-2.52-8.44-5.041" fill="#8eafa0" fill-rule="evenodd"/>
    <path id="Path_4178" data-name="Path 4178" d="M706.021,593.4h-.254a16.634,16.634,0,0,1-4.767-.918c-1.523-.507-2.327-1.056-2.532-1.729a1.576,1.576,0,0,1,.392-1.437,25.737,25.737,0,0,1,6.454-5.429l.13-.084.134.079,4.458,2.662,4.142,2.474-.044.18c-.246,1-1.677,2.072-2.281,2.488a9.069,9.069,0,0,1-5.832,1.715m-.565-9.009a24.951,24.951,0,0,0-6.2,5.23,1.1,1.1,0,0,0-.309.986c.149.49.893.961,2.21,1.4a16.12,16.12,0,0,0,4.616.894,8.654,8.654,0,0,0,5.8-1.625,5.8,5.8,0,0,0,2.021-2.026l-3.811-2.275q-2.16-1.292-4.323-2.582" fill="#fdfefe"/>
    <path id="Path_4179" data-name="Path 4179" d="M599.148,564.184a2.611,2.611,0,0,1,.943.322c.159.091.326-.046.339-.3a3.253,3.253,0,0,0-2.244-3.158c1.015,1.214,1.392,2.486.962,3.133" fill="#8eafa0" fill-rule="evenodd"/>
    <path id="Path_4180" data-name="Path 4180" d="M600.192,564.784a.449.449,0,0,1-.225-.061,2.334,2.334,0,0,0-.852-.291l-.4-.052.223-.335c.365-.55-.032-1.741-.945-2.834l-.462-.553.7.148a3.478,3.478,0,0,1,2.444,3.4.6.6,0,0,1-.283.524.417.417,0,0,1-.206.054m.02-.5h0Zm-.706-.288a2.98,2.98,0,0,1,.663.265.228.228,0,0,0,.012-.069,3.285,3.285,0,0,0-1.237-2.522,3.057,3.057,0,0,1,.562,2.326" fill="#fdfefe"/>
    <path id="Path_4181" data-name="Path 4181" d="M593.8,574.659q3.277-3.774,6.55-7.54c3.013,3.613,4.205,7.676,2.063,12.578-1.242,2.566-3.441,3.476-4.218,1.6a23.694,23.694,0,0,0-4.395-6.634" fill="#8eafa0" fill-rule="evenodd"/>
    <path id="Path_4182" data-name="Path 4182" d="M599.495,582.542h-.049a1.658,1.658,0,0,1-1.482-1.153,23.173,23.173,0,0,0-4.349-6.562l-.148-.164,2.675-3.078q2.011-2.314,4.02-4.629l.193-.222.188.226c3.4,4.083,4.091,8.282,2.1,12.838-.813,1.677-2.041,2.745-3.149,2.745m-5.361-7.885a23.4,23.4,0,0,1,4.293,6.541,1.193,1.193,0,0,0,1.033.843c.9.027,2.017-.982,2.73-2.453,1.866-4.273,1.264-8.231-1.844-12.081q-1.913,2.2-3.826,4.4Z" fill="#fdfefe"/>
    <path id="Path_4183" data-name="Path 4183" d="M769.384,583.622a4.336,4.336,0,0,1,.562,1.146.264.264,0,0,0,.458.12,3.888,3.888,0,0,0,.222-4.386c.064,1.775-.407,2.729-1.242,3.12" fill="#8eafa0" fill-rule="evenodd"/>
    <path id="Path_4184" data-name="Path 4184" d="M770.2,585.229a.469.469,0,0,1-.117-.015.533.533,0,0,1-.371-.367,4.081,4.081,0,0,0-.531-1.082l-.168-.243.268-.126c.795-.372,1.154-1.316,1.1-2.885l-.034-.967.5.829a4.12,4.12,0,0,1-.252,4.684.572.572,0,0,1-.391.172m-.458-1.518a4.668,4.668,0,0,1,.445.98,3.317,3.317,0,0,0,.647-3.019,2.656,2.656,0,0,1-1.092,2.039" fill="#fdfefe"/>
    <path id="Path_4185" data-name="Path 4185" d="M757.767,583.836a20.219,20.219,0,0,0-3.379,6.521c-.411,1.55.726,2.264,2.963,2.591a14.553,14.553,0,0,0,4.7.021,6.7,6.7,0,0,0,4.848-3.03,4.894,4.894,0,0,0,1.1-2.978c-3.4-1.041-6.825-2.077-10.224-3.125" fill="#8eafa0" fill-rule="evenodd"/>
    <path id="Path_4186" data-name="Path 4186" d="M760.048,593.4a20.733,20.733,0,0,1-2.731-.2c-1.6-.234-2.554-.653-2.991-1.316a1.9,1.9,0,0,1-.18-1.588,20.439,20.439,0,0,1,3.417-6.6l.106-.146.171.053q3.267,1.008,6.55,2l3.825,1.168.022.156a5.312,5.312,0,0,1-1.138,3.156,6.948,6.948,0,0,1-5,3.132,10.042,10.042,0,0,1-2.05.186m-2.183-9.271a19.609,19.609,0,0,0-3.235,6.292,1.409,1.409,0,0,0,.113,1.185c.349.528,1.214.887,2.643,1.1a14.173,14.173,0,0,0,4.609.023,6.443,6.443,0,0,0,4.692-2.926,5,5,0,0,0,1.07-2.647l-3.512-1.072q-3.193-.972-6.38-1.951" fill="#fdfefe"/>
    <path id="Path_4187" data-name="Path 4187" d="M623.5,585.663a2.833,2.833,0,0,1,.371.924c.042.172.243.224.42.1a2.846,2.846,0,0,0,.8-3.488c-.2,1.461-.856,2.46-1.588,2.464" fill="#8eafa0" fill-rule="evenodd"/>
    <path id="Path_4188" data-name="Path 4188" d="M624.087,587.005a.486.486,0,0,1-.173-.031.464.464,0,0,1-.288-.327,2.577,2.577,0,0,0-.341-.852l-.234-.38.446,0c.6,0,1.164-.948,1.341-2.248l.1-.75.364.664a3.079,3.079,0,0,1-.862,3.806.623.623,0,0,1-.356.12m-.207-1.163a3.1,3.1,0,0,1,.234.694,2.782,2.782,0,0,0,1.01-2.347,2.44,2.44,0,0,1-1.244,1.653" fill="#fff"/>
    <path id="Path_4189" data-name="Path 4189" d="M621.725,588.308q-4.51-1.423-9.023-2.855a19.865,19.865,0,0,0-4.351,5.411c-.594,1.225.385,1.815,2.464,2.1a16.794,16.794,0,0,0,4.464.068,7.974,7.974,0,0,0,5.015-2.355,4.221,4.221,0,0,0,1.431-2.367" fill="#8eafa0" fill-rule="evenodd"/>
    <path id="Path_4190" data-name="Path 4190" d="M613.537,593.4a22.523,22.523,0,0,1-2.753-.189c-1.544-.21-2.409-.581-2.723-1.168a1.375,1.375,0,0,1,.065-1.288,19.9,19.9,0,0,1,4.4-5.482l.106-.1,9.335,2.953,0,.179c.017.877-.935,1.973-1.5,2.548a8.25,8.25,0,0,1-5.153,2.426,11.679,11.679,0,0,1-1.782.123m-.77-7.663a19.179,19.179,0,0,0-4.191,5.235.9.9,0,0,0-.074.834c.226.422,1.015.728,2.347.909a16.32,16.32,0,0,0,4.392.068,7.719,7.719,0,0,0,4.877-2.284,4.651,4.651,0,0,0,1.342-2.012Z" fill="#fdfefe"/>
    <path id="Path_4191" data-name="Path 4191" d="M562.7,468.267a3.78,3.78,0,0,1-5.146,1.768,4.071,4.071,0,0,1-1.21-5.482l24.89-45.876a3.771,3.771,0,0,1,5.138-1.769,4.071,4.071,0,0,1,1.218,5.475Z" fill="#8eafa0" fill-rule="evenodd"/>
    <path id="Path_4192" data-name="Path 4192" d="M559.216,470.732a3.535,3.535,0,0,1-1.788-.482,4.32,4.32,0,0,1-1.3-5.816l24.891-45.876a4.467,4.467,0,0,1,2.68-2.205,3.582,3.582,0,0,1,2.8.339,4.324,4.324,0,0,1,1.311,5.81l-24.89,45.885a4.5,4.5,0,0,1-2.693,2.206,3.749,3.749,0,0,1-1.011.139m25.5-54.021a3.3,3.3,0,0,0-.884.123,3.97,3.97,0,0,0-2.376,1.961l-24.89,45.877a3.819,3.819,0,0,0,1.117,5.146,3.1,3.1,0,0,0,2.412.293,4,4,0,0,0,2.388-1.963l24.889-45.884a3.823,3.823,0,0,0-1.123-5.14,3.014,3.014,0,0,0-1.533-.413" fill="#fdfefe"/>
    <path id="Path_4193" data-name="Path 4193" d="M547.542,482.128a20.954,20.954,0,0,1,5.081,4.636c.327.343.694.675,1,1.032,4.861-7.991,5.939-16.322,2.414-18.644-3.505-2.3-10.253,2.208-15.138,10.1a19.956,19.956,0,0,1,6.647,2.877" fill="#8eafa0"/>
    <path id="Path_4194" data-name="Path 4194" d="M553.653,488.223l-.224-.266c-.188-.222-.4-.434-.615-.645-.126-.124-.252-.249-.372-.375a20.873,20.873,0,0,0-5.037-4.6,19.836,19.836,0,0,0-6.564-2.842l-.343-.077.185-.3c3.5-5.655,8.177-9.843,11.912-10.668a4.527,4.527,0,0,1,3.575.492c3.687,2.428,2.66,10.766-2.337,18.983Zm-5.973-6.3a21.291,21.291,0,0,1,5.14,4.691c.1.1.223.226.346.347.14.139.28.278.414.42,4.628-7.764,5.677-15.8,2.315-18.016a4.033,4.033,0,0,0-3.193-.421c-3.544.783-8,4.75-11.409,10.147a20.462,20.462,0,0,1,6.387,2.832" fill="#fdfefe"/>
  </g>
</svg>
