<svg xmlns="http://www.w3.org/2000/svg" width="209.367" height="185.377" viewBox="0 0 209.367 185.377">
  <path id="Path_4146" data-name="Path 4146" d="M820.019,520.066c-.376.7-3.039,4.324-2.712,3.56.417-.92,3.883-4.854,3.185-9.818-.027-.188-.338-.15-.342.042a12.551,12.551,0,0,1-.192,2.589,18.525,18.525,0,0,0-1.666-6.856c-.018-.054-.1-.017-.085.031a31.228,31.228,0,0,1,.327,4.972,22.773,22.773,0,0,0-1.717-6.792.254.254,0,0,0-.49.129,22.165,22.165,0,0,1,.506,4c-.021-.042-.021-.086-.044-.131a16.365,16.365,0,0,0-4.52-6.626c-.208-.195-.449.085-.3.289a14.939,14.939,0,0,1,1.543,2.4,13.964,13.964,0,0,1,.73,2.737,11.679,11.679,0,0,0-4.97-6.308c-.422-.252-.76.28-.5.615a18.274,18.274,0,0,1,3.265,14.99c-.783,3.454-2.51,5.87-4.48,8.393a26.094,26.094,0,0,0-5.624-7.481,18.449,18.449,0,0,0,1.718,1.03c.067.027.152-.027.107-.107-1.244-1.8-3.469-2.9-5.242-4.123a12.9,12.9,0,0,1-1.159-1.018,17.8,17.8,0,0,0,1.886.715.116.116,0,0,0,.089-.212,35.725,35.725,0,0,0-4.558-2.478c-.614-.291-1.211-.622-1.837-.918-1.271-.833-2.476-1.572-3.534-2.182a19.766,19.766,0,0,0,2.29.78c.063.037.124-.069.074-.125a13.231,13.231,0,0,0-4.413-2.282c.686.016,1.356,0,1.941-.023a.084.084,0,1,0,0-.167,39.829,39.829,0,0,1-5.07-1.048c-.18-.047-.383-.111-.581-.178.219.027.434.056.648.067a.113.113,0,0,0,.061-.208,12.055,12.055,0,0,0-5.944-1.141c-.866-.131-1.744-.235-2.622-.281a26.147,26.147,0,0,1,2.685-.142.127.127,0,0,0,0-.253,22.632,22.632,0,0,0-6.562.461,34.585,34.585,0,0,0-4.03.528c.675-.263,1.368-.515,2.077-.712.107-.031.056-.176-.046-.166a28.507,28.507,0,0,0-5.792,1.5.547.547,0,0,1-.129.017c.085-.065.157-.129.248-.188a15.181,15.181,0,0,1,3.382-1.726.047.047,0,0,0-.029-.089,11.091,11.091,0,0,0-3.816,1.342,8.26,8.26,0,0,0,.754-.76c.074-.089-.033-.235-.14-.162a29.293,29.293,0,0,1-3.58,1.868,5.949,5.949,0,0,1-.883.285H759.9a11.4,11.4,0,0,0,1.172-.738c.056-.029.021-.106-.041-.1a49.712,49.712,0,0,0-5.223,1.543c-.58.174-1.165.331-1.756.465-3.884.708-7.374.525-11.5.643a115.075,115.075,0,0,1-18.962-1.125,10.957,10.957,0,0,0,1.5-.439.107.107,0,1,0-.044-.209,13.432,13.432,0,0,1-3.214.307,9.214,9.214,0,0,1-2.15-.487,9.773,9.773,0,0,1,3.256-.43c.127,0,.115-.18,0-.188a13.176,13.176,0,0,0-3.846.084c-1.684-.171-3.328-.473-5-.722a39.719,39.719,0,0,0,4.047-.165c.061-.022.106-.139.008-.15a19.9,19.9,0,0,0-4.776-.4c.7-.133,1.4-.257,2.145-.392.1-.016.071-.17-.031-.175a34.2,34.2,0,0,0-4.813.237,14.136,14.136,0,0,0,1.546-.87c.093-.074.046-.265-.09-.227a22.16,22.16,0,0,1-6.186,1.629,6.924,6.924,0,0,1-1.317.022c.788-.1,1.587-.19,2.38-.246.265-.012.28-.409.009-.406a33.893,33.893,0,0,0-5.244.311,15.987,15.987,0,0,0,1.579-.828.06.06,0,0,0-.06-.1c-3.663,1.539-7.158,1.45-10.942,1.659a7.816,7.816,0,0,0,1.574-.357.119.119,0,0,0-.02-.23c-1.505-.263-3.057-.132-4.593-.354a14.529,14.529,0,0,1-1.734-.385,32.185,32.185,0,0,1-3.591-1.9,17.115,17.115,0,0,0,4.954.632c.093,0,.1-.137-.007-.149a18.732,18.732,0,0,1-6.061-1.681,18.084,18.084,0,0,0,3.078.2c.1,0,.1-.141,0-.158a26.679,26.679,0,0,1-5.567-1.393c-.166-.129-.315-.248-.485-.38a10.707,10.707,0,0,0,3.086.115.09.09,0,0,0,.027-.176,35.114,35.114,0,0,1-4.01-1.032c-.263-.093-.5-.2-.741-.311a5.47,5.47,0,0,0,2.379.28c.052,0,.047-.084,0-.084-3.743-.051-5.579-3.968-8.039-6.079a.29.29,0,0,0-.2-.08c-.659-.746-1.316-1.5-1.962-2.258a3.334,3.334,0,0,0,1.553.191c.1,0,.094-.125.031-.172-.985-.706-2.107-.857-3-1.776-.169-.17-.337-.351-.5-.547a4.087,4.087,0,0,0,2.421.686.15.15,0,0,0,.044-.294,18.943,18.943,0,0,1-5.153-3.71c-.2-.169-.392-.358-.6-.546-.442-.516-.869-1.02-1.308-1.513a5.6,5.6,0,0,0,1.378.3c.162.008.162-.21.039-.255a12.556,12.556,0,0,1-2.753-1.572,47.332,47.332,0,0,0-10.56-8.147A41.467,41.467,0,0,1,650,480.261c-.385,1-.784,2.042-1.128,3.064a.244.244,0,0,1-.229.159c-.022,0-.03-.012-.054-.012a.21.21,0,0,1-.171-.23,22.47,22.47,0,0,1,1.714-6.624l.1-.291a17.874,17.874,0,0,0,.76-7.361c-.018-.328-.029-.652-.035-.982a4.9,4.9,0,0,0-1.412-3.105c-3.621.84-4.7,4.9-5.228,8.909a.27.27,0,0,1-.259.235h-.007a.268.268,0,0,1-.259-.235,10.654,10.654,0,0,1,2.051-8.113,7,7,0,0,1,3.367-2.212c6.4-6.6,19.223-11.617,20.9-2.173.056.333.512.418.585.088,1.547-7.14-4.656-8.37-11.114-7.973l-.081.013-.068.023a43.692,43.692,0,0,0-8.188,1.947h.021a23.362,23.362,0,0,0-6.668,4.5,56.078,56.078,0,0,0-7.763,11.1.261.261,0,0,1-.051.078,7.369,7.369,0,0,1-4.549,3.273l-.135.046-.073-.141a.171.171,0,0,1,.068-.218l.044-.02a7.951,7.951,0,0,0,2.318-1.615,7.326,7.326,0,0,0,.823-1.3,9.289,9.289,0,0,1,.631-1.074,40.446,40.446,0,0,1,9.208-12.3,22.158,22.158,0,0,1,10.878-4.5c-4.411-2.5-11,.427-14.519,2.875a33.534,33.534,0,0,0-8.151,8.751,48.387,48.387,0,0,0-4.353,7.3c-3.55.711-7.158.6-10.032-1.853a.609.609,0,0,0-.985.2c-2.516,1.892.251,6.266,1.994,7.716a10.858,10.858,0,0,0,2.845,1.561,11.074,11.074,0,0,1,2.382-3.934c-1.4.274-3.023.029-3.8-1.015l-.315-.434.494.2a5.6,5.6,0,0,0,2.09.5,10.522,10.522,0,0,0,2.812-.347l.04-.035.05.008a.3.3,0,0,1,.093.034h.042l.051.106a.135.135,0,0,1-.005.146l-.008.025-.183.24c-.023.039-.034.076-.063.093a16.167,16.167,0,0,0-2.5,4.4,10.952,10.952,0,0,0-.439,2.764h-.005l-.007.067.007-.01a.268.268,0,0,0-.007.069,9.738,9.738,0,0,1-.252,2.017.059.059,0,0,1,0,.031,7.609,7.609,0,0,1-.227.8,23.446,23.446,0,0,1-4.576,7.077c-3.934,3.889-9.514,9.557-6.3,13.283-.566,1.08.069,2.742.621,3.719a3.647,3.647,0,0,0,.346.136,8.33,8.33,0,0,0,2.374.146c2.866-.2,7.828-2.818,9.814-3.922a1.356,1.356,0,0,1,.255-.123,1.021,1.021,0,0,1,.176-.56.261.261,0,0,1,.236-.108.269.269,0,0,1,.214.17,2.454,2.454,0,0,1,.022,1.225l-.017.118a.284.284,0,0,1-.261.252h-.014a.325.325,0,0,1-.3-.24,1.654,1.654,0,0,1-.042-.319c-3.186,2.209-7.368,5.013-11.212,4.984h-.09a15.677,15.677,0,0,0,2.337,1.08,7.3,7.3,0,0,0,5.452.163c.409.623.929,1.2,1.416,1.817,2.6,3.19,2.252,6.028.08,9.493-.159.248.223.562.427.328.21-.266.43-.549.647-.837a5.357,5.357,0,0,0,.065,2.969.115.115,0,0,0,.222-.009c.764-2.84,2.893-5.755,3.283-8.753a14.475,14.475,0,0,1-1.41,5.41.105.105,0,0,0,.172.111,9.2,9.2,0,0,0,2.887-6.881,20.509,20.509,0,0,0-.965-4.081,9.42,9.42,0,0,1-.293-2.292c3-1.029,6.118-1.772,8.881-3.043a20.978,20.978,0,0,1,2.077-.8,22.135,22.135,0,0,1,2.583-.943,19.461,19.461,0,0,0,3.048-1.177,14.516,14.516,0,0,0,6.262-6.918.21.21,0,0,1,.253-.132.249.249,0,0,1,.191.274,11.136,11.136,0,0,1-4.5,7.223c-.956.738-1.941,1.435-2.921,2.047a5.527,5.527,0,0,1,.551.366c4.381,5.116,8.68,9.314,10.414,16.51,1.717,7.154,1.425,14.6,2.776,21.8.039.221.112.613.163,1.044a26.036,26.036,0,0,0,4.805,13.473A17.437,17.437,0,0,0,674.6,566.4a27.154,27.154,0,0,0-1.715-4.89.193.193,0,0,1,.073-.23.224.224,0,0,1,.281.059,22.36,22.36,0,0,1,2.727,5.179h.014c.018.035.027.085.042.122A21.657,21.657,0,0,1,677.31,573a17.178,17.178,0,0,1-.163,4.1c-1.193,7.4-5.776,15.863-3.32,23.425-.01.455-.037.92-.072,1.37a32.751,32.751,0,0,1-2.555,10.65c-1.365,3.089-4.172,8.947-6.613,11.111-.449.261-.895.515-1.346.777-1.469.84-3.754,1.433-4.75,2.81-1.363,1.9-1.694,3.126-2.894,6.44a1.189,1.189,0,0,0,.125.907,5.977,5.977,0,0,0,.405-.622c1.057-1.752,2.042-3.228,3.472-5.172a1.736,1.736,0,0,1-.183-.048c-.611-.133-.639-.5-.636-.613.014-.31.317-.547.729-.6,2.571-.334,4.311,2.09,5.409,3.945a.172.172,0,0,1-.03.24.19.19,0,0,1-.138.044.163.163,0,0,1-.144-.047c-.166-.146-.337-.3-.5-.465a14.34,14.34,0,0,0-2-1.576,7.711,7.711,0,0,0-1.868-.738,35.168,35.168,0,0,1-1.283,4.2c-.29.833-.584,1.706-.861,2.623a18.172,18.172,0,0,0,5.172.5c2.065-.008,4.533.014,5.85-1.755a35.845,35.845,0,0,0,2.474-5.323c.776-2.584,2.6-.655,3.022-.464a1.3,1.3,0,0,0,1.615-.47,6.441,6.441,0,0,0,1.216-2.781,18.173,18.173,0,0,0,.507-4.071c.14-4.341.427-7.667,2.413-11.617,1.643-3.276,5.026-8.956,4.622-12.516,1.12-3.713,1.344-5.5,4.282-8.8a3.563,3.563,0,0,0,.291-.324c.332-.47.658-.951,1-1.4a30.7,30.7,0,0,0,1.921-2.808,45.041,45.041,0,0,0,4.139-9.26c.214-.681.38-1.4.538-2.1a12.432,12.432,0,0,1,1.807-4.745c.652-.858,1.338-1.649,2-2.4a19.384,19.384,0,0,0,3.663-5.321.426.426,0,0,1,.529-.229.352.352,0,0,1,.214.451,22.481,22.481,0,0,1-3.991,7.03,12.851,12.851,0,0,0-1.915,3.606,16.226,16.226,0,0,0,4.254,3.227l.2.116c.442.264.917.512,1.424.767.336.162.681.336,1.015.524a95.427,95.427,0,0,0,13.923,5.631,39,39,0,0,0,7.6,1.506,13.568,13.568,0,0,0,6.506,1.625c.048,0,.048-.059,0-.059a8.826,8.826,0,0,1-4.336-1.363h.059a12.02,12.02,0,0,0,6.421.921c.1.033.191.068.286.108a10.2,10.2,0,0,0,4.554.647c.129,0,.124-.165.005-.186a15.966,15.966,0,0,1-2.353-.474,21.45,21.45,0,0,0,6.72.061c.243-.033.175-.38-.034-.4-.771-.052-1.536-.072-2.3-.094a33.679,33.679,0,0,0,5.763-.549c.091-.009.068-.165-.022-.157-.8.085-1.615.136-2.431.186a12.4,12.4,0,0,0,3.444-1,.05.05,0,0,0-.021-.1c-.412-.005-.822-.041-1.245-.073.867-.256,1.751-.537,2.634-.856,1.194,1.59,13.906,9.25,15.154,9.73.123,5.937.445,11.762-.72,17.709a44.718,44.718,0,0,1-2.736,8.677c-.873,2.149-2.474,7.145-3.849,8.08-1.5,1.009-4.165,2.028-5.048,2.618-1.907,1.278-2.741,4.822-3.314,7.067,0-.007,0-.007.01-.009a18.606,18.606,0,0,0,1.655-2.7,21.476,21.476,0,0,1,1.137-2.022.166.166,0,0,1,.3.127c-.119.492-.226,1.067-.333,1.67a14.989,14.989,0,0,1-1.07,3.947,23.463,23.463,0,0,0,8.212.07,5.188,5.188,0,0,1-1.019-1.11,11.275,11.275,0,0,0-3.119-3.031.143.143,0,0,1-.055-.2.171.171,0,0,1,.2-.093,6.5,6.5,0,0,1,2.938,1.836c.135.148.271.31.389.464a4.178,4.178,0,0,0,.9.925,1.414,1.414,0,0,0,1.756.107c.445-.811,1.041-2.383,1.446-3.027.462-.766.946-2.02,2.038-2.435,1.222,1.049.344,2.78,1.722,2.265,1.137-.423,2.341-2.821,2.657-4.857,1.063-6.984,1.7-13.615,5.175-19.943a69.824,69.824,0,0,1,5.6-8.552c-.755-.85-1.548-1.654-2.365-2.49-.973-1.019-1.992-2.076-2.989-3.211a77.34,77.34,0,0,1-4.874-9.1c-2.067-5.334-4.408-11.4-11.179-12.509-3.94-.652-8.184.285-12.292,1.188-1.041.234-2.026.442-3,.631a.237.237,0,0,1-.124-.456c.5-.135.98-.272,1.487-.4,8.453-2.294,18.038-4.912,23.724,4.063a42.935,42.935,0,0,1,3.253,6.8c1.317,3.252,2.7,6.626,5.247,9.353.721.772,1.526,1.488,2.348,2.267.73.669,1.463,1.336,2.166,2.054-.005-.009,0-.017.007-.034,2.127,1.986,4.964,4.074,6.2,6.863a18.356,18.356,0,0,1,1.565,7.926c-.653,5.589-1.1,13.332-6.591,15.99-4.924,2.379-3.478,1.995-6.3,9.431a.3.3,0,0,0,.061.324c.146-.226.3-.458.434-.69.3-.5.609-1.011.945-1.5a14.253,14.253,0,0,0,1.009-1.974,12.589,12.589,0,0,1,.759-1.6h.007a.625.625,0,0,1,.686-.385,7.892,7.892,0,0,1,5.172,4.011.178.178,0,0,1,.03.1.238.238,0,0,1-.091.186.177.177,0,0,1-.129.03.228.228,0,0,1-.18-.091,8.136,8.136,0,0,0-2.38-2.11,8.624,8.624,0,0,0-2.376-.87l-.371-.1c-.123.7-.247,1.381-.371,2.076-.1.523-.187,1.048-.287,1.581a12.934,12.934,0,0,1-.478,1.921,54.388,54.388,0,0,0,8.663-.268c1.531-.72,1.919-6.267,3.557-6.719.713-.112-.029,1.2.41,1.552.946.753,2.166.137,3.095-1.259.964-1.463,1.177-5.144,1.317-8.187a109.437,109.437,0,0,1,1.582-14.587c.86-4.624,1.451-6.39,2.081-11.327.383-3.115-1.412-5.619-2.819-8.3a32.038,32.038,0,0,1-2.477-6.511,48.318,48.318,0,0,1-.879-5.426,8.132,8.132,0,0,0,.7,1.469c.044.056.163.041.141-.051a20.3,20.3,0,0,0-.5-3.082c-.118-.728-.174-1.478-.287-2.224.006-.082.018-.165.018-.257a13.6,13.6,0,0,0,.945,2.169c.119.229.411.061.372-.149-.175-1.083-.434-2.132-.659-3.2a1.958,1.958,0,0,0,.534.584c.061.038.135-.046.107-.112a4.929,4.929,0,0,1-.378-2.7,3.433,3.433,0,0,0,.461,1.232.043.043,0,0,0,.078-.023,19.6,19.6,0,0,1,.068-2.976c.338-.838.732-1.718,1.2-2.665,4.087-8.31,3.382-10.765,5.274-15.186,1.208-2.809,2.273-4.562,3.219-6.63-.287,1.086-.619,2.143-.952,3.206a.1.1,0,0,0,.192.084c1.031-2.3,2.336-5.167,2.4-7.907.1-.376.2-.771.3-1.2a11.674,11.674,0,0,1-.591,4.975c-.035.118.14.184.184.073a13.713,13.713,0,0,0,1.077-8.813,6.223,6.223,0,0,1,.832,2.069c.005.1.157.138.186.023a4.438,4.438,0,0,0-.607-2.708,7.453,7.453,0,0,0,2.133.316.156.156,0,0,0,.044-.3,16.233,16.233,0,0,1-1.57-.533.846.846,0,0,0,.185-.077A12.257,12.257,0,0,0,815,531.6c.1-.022.056-.14-.034-.135a13.48,13.48,0,0,1-3.947-.145c.007-.009.012-.023.018-.023a34.676,34.676,0,0,0,6.01-2.365c.068-.054.018-.192-.072-.163a17.214,17.214,0,0,1-3.54.708,8.355,8.355,0,0,0,5.257-4.821c.039-.1-.073-.154-.124-.072a10.671,10.671,0,0,1-3.6,3.317c.146-.135,2.527-2.075,5.312-7.763.085-.162-.106-.355-.259-.069M617.438,503.687l-.406.1c-1.009.251-2.7.66-2.938,1.692a.241.241,0,0,1-.216.192h-.024a.247.247,0,0,1-.223-.133,1.875,1.875,0,0,1-.023-1.684c.5-1.044,2.076-1.769,3.356-2.067h.006a.984.984,0,0,1,.468,1.9m14.708-19.266c.256-1.229.5-2.388,1.909-2.977a8.368,8.368,0,0,1,5.324-.3.241.241,0,0,1,.172.227v.03a.274.274,0,0,1-.251.223c-.447.012-.892.009-1.325,0a9.235,9.235,0,0,0-3.425.372c-1.112.409-1.421,1.206-1.816,2.2a6.272,6.272,0,0,1-.388.956l-.064.122-.154-.024a.171.171,0,0,1-.112-.206c.05-.21.084-.419.131-.621m8.289,2.819h-.006a8.935,8.935,0,0,1-1.283-.221,1.189,1.189,0,0,1-.265.487,2.948,2.948,0,0,1-2.034,1.418,1.666,1.666,0,0,1-.385.03,2.05,2.05,0,0,1-1.419-.554.144.144,0,0,1-.033-.169.17.17,0,0,1,.176-.071,2.771,2.771,0,0,0,2.124-.129,2.018,2.018,0,0,0,.884-1.219,4.006,4.006,0,0,0-.5-.068,5.549,5.549,0,0,0-1.983.1.978.978,0,0,0,.342.145l.051.012a2.608,2.608,0,0,0,.636.085.187.187,0,0,1,.175.278,1.169,1.169,0,0,1-1.107.622h-.005a1.7,1.7,0,0,1-.858-.263.617.617,0,0,1-.225-.08.823.823,0,0,0-.051.1,2.257,2.257,0,0,1-.213.376,10.216,10.216,0,0,1-3.137,2.886.149.149,0,0,1-.086.029.186.186,0,0,1-.138-.073.159.159,0,0,1,.017-.225,16.3,16.3,0,0,0,2.7-3c.11-.174.205-.375.329-.576a3.06,3.06,0,0,1,.956-1.275,2.611,2.611,0,0,1,1.829-.046c.091.017.189.034.271.052l.285.065a11.95,11.95,0,0,1,3.058.84.214.214,0,0,1,.116.26.227.227,0,0,1-.222.184m7.879-11.22a9.717,9.717,0,0,1,.417-2.188,12.931,12.931,0,0,0,.366-1.632,13.956,13.956,0,0,0-.007-2.745c-.05-.57-.085-1.154-.085-1.749a.338.338,0,0,1,.269-.32.35.35,0,0,1,.362.162,7.059,7.059,0,0,1,.4,4.155,11.25,11.25,0,0,1-.664,2.238,10.951,10.951,0,0,0-.653,2.124.179.179,0,0,1-.195.17h-.03a.21.21,0,0,1-.18-.214m-2.988,30.555c-.059,0-.059-.08,0-.085s.044.085,0,.085m55.694.916a.441.441,0,0,1,.187.042c-.153,0-.3.007-.451.012.087-.017.179-.04.264-.054m-22.429,89.761a4.24,4.24,0,0,1-1.449,1.415,4.676,4.676,0,0,0-1.261,1.147.138.138,0,0,1-.122.056.341.341,0,0,1-.078-.014.152.152,0,0,1-.046-.188,6.008,6.008,0,0,1,1.074-1.309,6.252,6.252,0,0,0,.979-1.174,5.838,5.838,0,0,0,.588-2.322,6.994,6.994,0,0,1,.395-1.948.343.343,0,0,1,.408-.234.338.338,0,0,1,.293.324,9.692,9.692,0,0,1-.78,4.247m24.062-85.719c-4.162.146-8.04.436-11.983,1.931a35.221,35.221,0,0,0-10.807,6.77c-.029.016-.048-.009-.034-.034,5.172-6.295,14.606-10.441,22.829-9.352a.343.343,0,0,1-.005.685m31.713,71.6a2.228,2.228,0,0,1,.341.017,2.72,2.72,0,0,1,.272.107c-.195-.034-.4-.073-.613-.124m12.042-64.457a.076.076,0,1,1,.057-.14,26.3,26.3,0,0,0,6.2.938c1.84.069,3.7-.214,5.528-.088.422.035.524.57.1.681-3.737,1.044-8.354-.23-11.877-1.391m19.6-.749c-4.71,3.162-4.778,7.733-6.765,12.575a31.667,31.667,0,0,1-6.1,9.384c-.1.108-.281-.031-.2-.15,3.573-5.073,5.352-10.45,7.08-16.315.828-2.778,2.41-6.328,5.8-6.176a.37.37,0,0,1,.191.682" transform="translate(-611.218 -452.257)" fill="#8eafa0"/>
</svg>
