<svg xmlns="http://www.w3.org/2000/svg" width="26.544" height="26.538" viewBox="0 0 26.544 26.538">
  <path id="Icon_awesome-instagram" data-name="Icon awesome-instagram" d="M13.27,8.7a6.8,6.8,0,1,0,6.8,6.8A6.793,6.793,0,0,0,13.27,8.7Zm0,11.227a4.423,4.423,0,1,1,4.423-4.423A4.431,4.431,0,0,1,13.27,19.93ZM21.939,8.424a1.587,1.587,0,1,1-1.587-1.587A1.583,1.583,0,0,1,21.939,8.424Zm4.506,1.611A7.854,7.854,0,0,0,24.3,4.475a7.905,7.905,0,0,0-5.56-2.144c-2.191-.124-8.758-.124-10.949,0a7.894,7.894,0,0,0-5.56,2.138,7.879,7.879,0,0,0-2.144,5.56c-.124,2.191-.124,8.758,0,10.949a7.854,7.854,0,0,0,2.144,5.56,7.915,7.915,0,0,0,5.56,2.144c2.191.124,8.758.124,10.949,0a7.854,7.854,0,0,0,5.56-2.144,7.905,7.905,0,0,0,2.144-5.56c.124-2.191.124-8.752,0-10.943ZM23.615,23.329a4.478,4.478,0,0,1-2.523,2.523c-1.747.693-5.892.533-7.822.533s-6.082.154-7.822-.533a4.478,4.478,0,0,1-2.523-2.523c-.693-1.747-.533-5.892-.533-7.822s-.154-6.082.533-7.822A4.478,4.478,0,0,1,5.447,5.161c1.747-.693,5.892-.533,7.822-.533s6.082-.154,7.822.533a4.478,4.478,0,0,1,2.523,2.523c.693,1.747.533,5.892.533,7.822S24.308,21.588,23.615,23.329Z" transform="translate(0.005 -2.238)" fill="#2a2a2a"/>
</svg>
