<svg xmlns="http://www.w3.org/2000/svg" width="18.11" height="18.11" viewBox="0 0 18.11 18.11">
  <path id="Icon_awesome-linkedin" data-name="Icon awesome-linkedin" d="M16.817,2.25H1.29A1.3,1.3,0,0,0,0,3.556v15.5A1.3,1.3,0,0,0,1.29,20.36H16.817a1.3,1.3,0,0,0,1.294-1.306V3.556A1.3,1.3,0,0,0,16.817,2.25ZM5.474,17.773H2.789V9.13H5.478v8.643ZM4.131,7.95A1.556,1.556,0,1,1,5.688,6.394,1.557,1.557,0,0,1,4.131,7.95Zm11.4,9.823H12.851v-4.2c0-1-.02-2.292-1.395-2.292-1.4,0-1.613,1.091-1.613,2.219v4.277H7.159V9.13H9.734v1.18h.036a2.827,2.827,0,0,1,2.543-1.395c2.717,0,3.222,1.791,3.222,4.119Z" transform="translate(0 -2.25)" fill="#2a2a2a"/>
</svg>
