<svg id="Icon_awesome-link" data-name="Icon awesome-link" xmlns="http://www.w3.org/2000/svg" width="17.636" height="17.636" viewBox="0 0 17.636 17.636">
  <path id="Icon_awesome-link-2" data-name="Icon awesome-link" d="M11.25,6.386a5.233,5.233,0,0,1,.012,7.392l-.012.013L8.936,16.105a5.236,5.236,0,0,1-7.4-7.4L2.809,7.423a.551.551,0,0,1,.94.365A6.347,6.347,0,0,0,4.083,9.6a.554.554,0,0,1-.13.572l-.451.451a2.48,2.48,0,1,0,3.485,3.53L9.3,11.842a2.479,2.479,0,0,0,0-3.508,2.58,2.58,0,0,0-.356-.3.552.552,0,0,1-.239-.434,1.372,1.372,0,0,1,.4-1.027l.725-.725a.553.553,0,0,1,.709-.06,5.252,5.252,0,0,1,.707.592ZM16.1,1.531a5.242,5.242,0,0,0-7.4,0L6.386,3.846l-.012.013a5.237,5.237,0,0,0,.719,7.984.553.553,0,0,0,.709-.06l.725-.725a1.372,1.372,0,0,0,.4-1.027A.552.552,0,0,0,8.691,9.6a2.58,2.58,0,0,1-.356-.3,2.479,2.479,0,0,1,0-3.508L10.649,3.48a2.48,2.48,0,1,1,3.485,3.53l-.451.451a.554.554,0,0,0-.13.572,6.347,6.347,0,0,1,.334,1.816.551.551,0,0,0,.94.365L16.1,8.935a5.241,5.241,0,0,0,0-7.4Z" transform="translate(0 0)" fill="#2a2a2a"/>
</svg>
