<svg id="Icon_awesome-twitter" data-name="Icon awesome-twitter" xmlns="http://www.w3.org/2000/svg" width="20.672" height="16.79" viewBox="0 0 20.672 16.79">
  <path id="Icon_awesome-twitter-2" data-name="Icon awesome-twitter" d="M18.547,7.565c.013.184.013.367.013.551A11.972,11.972,0,0,1,6.506,20.171,11.973,11.973,0,0,1,0,18.269a8.765,8.765,0,0,0,1.023.052,8.485,8.485,0,0,0,5.26-1.81,4.244,4.244,0,0,1-3.961-2.938,5.343,5.343,0,0,0,.8.066,4.481,4.481,0,0,0,1.115-.144,4.237,4.237,0,0,1-3.4-4.158V9.283a4.267,4.267,0,0,0,1.915.538A4.243,4.243,0,0,1,1.443,4.155a12.043,12.043,0,0,0,8.736,4.434,4.783,4.783,0,0,1-.1-.971,4.241,4.241,0,0,1,7.332-2.9A8.341,8.341,0,0,0,20.1,3.7,4.225,4.225,0,0,1,18.233,6.03a8.494,8.494,0,0,0,2.44-.656,9.107,9.107,0,0,1-2.125,2.191Z" transform="translate(0 -3.381)" fill="#2a2a2a"/>
</svg>
