<svg xmlns="http://www.w3.org/2000/svg" width="32.34" height="22.739" viewBox="0 0 32.34 22.739">
  <path id="Icon_awesome-youtube" data-name="Icon awesome-youtube" d="M32.714,8.058A4.064,4.064,0,0,0,29.855,5.18C27.333,4.5,17.22,4.5,17.22,4.5s-10.113,0-12.635.68A4.064,4.064,0,0,0,1.726,8.058a42.628,42.628,0,0,0-.676,7.835,42.628,42.628,0,0,0,.676,7.835,4,4,0,0,0,2.859,2.832c2.522.68,12.635.68,12.635.68s10.113,0,12.635-.68a4,4,0,0,0,2.859-2.832,42.628,42.628,0,0,0,.676-7.835,42.628,42.628,0,0,0-.676-7.835ZM13.913,20.7V11.084l8.452,4.809L13.913,20.7Z" transform="translate(-1.05 -4.5)" fill="#2a2a2a"/>
</svg>
